<svg width="301" height="301" viewBox="0 0 301 301" fill="none" xmlns="http://www.w3.org/2000/svg">
<g filter="url(#filter0_d_3_400)">
<rect x="45.9355" y="36" width="200" height="200" rx="20" fill="white"/>
</g>
<circle cx="93.1014" cy="180.166" r="22.9604" fill="#C4C4C4" stroke="white" stroke-width="0.410954"/>
<circle cx="128.325" cy="180.166" r="23.1658" fill="#C4C4C4" stroke="white" stroke-width="0.410954"/>
<circle cx="163.547" cy="180.166" r="23.1658" fill="#C4C4C4" stroke="white" stroke-width="0.410954"/>
<circle cx="198.769" cy="180.166" r="23.1658" fill="#C4C4C4" stroke="white" stroke-width="0.410954"/>
<path d="M114.486 101H119.616V97.1H122.076V92.66H119.616V79.4H113.886L104.406 92.96V97.1H114.486V101ZM109.806 92.66L114.846 85.04V92.66H109.806ZM124.588 89.75C124.588 96.23 126.778 100.91 133.018 100.91C139.258 100.91 141.448 96.23 141.448 89.75C141.448 83.33 139.258 78.65 133.018 78.65C126.778 78.65 124.588 83.33 124.588 89.75ZM136.408 89.75C136.408 93.23 136.048 96.11 133.018 96.11C129.988 96.11 129.628 93.23 129.628 89.75C129.628 86.39 129.988 83.45 133.018 83.45C136.048 83.45 136.408 86.39 136.408 89.75ZM144.669 101H149.799V93.98L154.899 101H161.259L154.239 92.66L161.199 84.26H154.869L149.799 91.07V78.8H144.669V101ZM174.701 82.85V88.22H169.481V92.81H174.701V98.15H179.561V92.81H184.781V88.22H179.561V82.85H174.701Z" fill="#111116"/>
<path d="M89.9118 120.4C90.0438 120.4 90.1578 120.448 90.2538 120.544C90.3498 120.64 90.3978 120.754 90.3978 120.886V132.514C90.3978 132.646 90.3498 132.76 90.2538 132.856C90.1578 132.952 90.0438 133 89.9118 133H89.1738C89.0418 133 88.9278 132.952 88.8318 132.856C88.7358 132.76 88.6878 132.646 88.6878 132.514V127.438H82.3518V132.514C82.3518 132.646 82.3038 132.76 82.2078 132.856C82.1118 132.952 81.9978 133 81.8658 133H81.1278C80.9958 133 80.8818 132.958 80.7858 132.874C80.6898 132.778 80.6418 132.658 80.6418 132.514V120.886C80.6418 120.754 80.6898 120.64 80.7858 120.544C80.8818 120.448 80.9958 120.4 81.1278 120.4H81.8658C81.9978 120.4 82.1118 120.448 82.2078 120.544C82.3038 120.64 82.3518 120.754 82.3518 120.886V125.818H88.6878V120.886C88.6878 120.754 88.7358 120.64 88.8318 120.544C88.9278 120.448 89.0418 120.4 89.1738 120.4H89.9118ZM98.8554 127.078V126.844C98.8554 126.256 98.6574 125.806 98.2614 125.494C97.8774 125.17 97.3734 125.008 96.7494 125.008C96.2694 125.008 95.8914 125.092 95.6154 125.26C95.3514 125.416 95.0994 125.656 94.8594 125.98C94.7874 126.076 94.7094 126.142 94.6254 126.178C94.5414 126.214 94.4274 126.232 94.2834 126.232H93.7434C93.6114 126.232 93.4914 126.184 93.3834 126.088C93.2874 125.992 93.2454 125.878 93.2574 125.746C93.2934 125.386 93.4674 125.032 93.7794 124.684C94.1034 124.324 94.5294 124.03 95.0574 123.802C95.5854 123.574 96.1494 123.46 96.7494 123.46C97.8654 123.46 98.7654 123.772 99.4494 124.396C100.145 125.02 100.493 125.896 100.493 127.024V132.514C100.493 132.646 100.445 132.76 100.349 132.856C100.253 132.952 100.139 133 100.007 133H99.3414C99.2094 133 99.0954 132.952 98.9994 132.856C98.9034 132.76 98.8554 132.646 98.8554 132.514V131.776C98.6634 132.208 98.2554 132.55 97.6314 132.802C97.0074 133.054 96.3834 133.18 95.7594 133.18C95.1474 133.18 94.6014 133.072 94.1214 132.856C93.6414 132.628 93.2694 132.322 93.0054 131.938C92.7534 131.554 92.6274 131.122 92.6274 130.642C92.6274 129.742 92.9634 129.04 93.6354 128.536C94.3074 128.02 95.2014 127.672 96.3174 127.492L98.8554 127.078ZM98.8554 128.518L96.7314 128.86C95.9514 128.98 95.3454 129.178 94.9134 129.454C94.4814 129.718 94.2654 130.054 94.2654 130.462C94.2654 130.762 94.4034 131.032 94.6794 131.272C94.9554 131.512 95.3754 131.632 95.9394 131.632C96.8034 131.632 97.5054 131.386 98.0454 130.894C98.5854 130.402 98.8554 129.76 98.8554 128.968V128.518ZM104.758 135.934C104.758 136.066 104.71 136.18 104.614 136.276C104.518 136.372 104.404 136.42 104.272 136.42H103.606C103.474 136.42 103.36 136.372 103.264 136.276C103.168 136.18 103.12 136.066 103.12 135.934V124.126C103.12 123.994 103.168 123.88 103.264 123.784C103.36 123.688 103.474 123.64 103.606 123.64H104.272C104.404 123.64 104.518 123.688 104.614 123.784C104.71 123.88 104.758 123.994 104.758 124.126V124.684C105.37 123.868 106.3 123.46 107.548 123.46C108.292 123.46 108.964 123.634 109.564 123.982C110.176 124.33 110.662 124.828 111.022 125.476C111.394 126.124 111.598 126.88 111.634 127.744C111.646 127.864 111.652 128.056 111.652 128.32C111.652 128.596 111.646 128.794 111.634 128.914C111.598 129.778 111.394 130.534 111.022 131.182C110.662 131.818 110.182 132.31 109.582 132.658C108.982 133.006 108.304 133.18 107.548 133.18C106.876 133.18 106.306 133.066 105.838 132.838C105.382 132.598 105.022 132.304 104.758 131.956V135.934ZM104.758 128.968C104.794 129.808 105.046 130.462 105.514 130.93C105.982 131.398 106.6 131.632 107.368 131.632C108.148 131.632 108.766 131.38 109.222 130.876C109.69 130.372 109.948 129.688 109.996 128.824C110.008 128.704 110.014 128.536 110.014 128.32C110.014 128.104 110.008 127.936 109.996 127.816C109.948 126.952 109.69 126.268 109.222 125.764C108.766 125.26 108.148 125.008 107.368 125.008C106.624 125.008 106.012 125.242 105.532 125.71C105.052 126.166 104.794 126.778 104.758 127.546L104.74 128.248L104.758 128.968ZM115.515 135.934C115.515 136.066 115.467 136.18 115.371 136.276C115.275 136.372 115.161 136.42 115.029 136.42H114.363C114.231 136.42 114.117 136.372 114.021 136.276C113.925 136.18 113.877 136.066 113.877 135.934V124.126C113.877 123.994 113.925 123.88 114.021 123.784C114.117 123.688 114.231 123.64 114.363 123.64H115.029C115.161 123.64 115.275 123.688 115.371 123.784C115.467 123.88 115.515 123.994 115.515 124.126V124.684C116.127 123.868 117.057 123.46 118.305 123.46C119.049 123.46 119.721 123.634 120.321 123.982C120.933 124.33 121.419 124.828 121.779 125.476C122.151 126.124 122.355 126.88 122.391 127.744C122.403 127.864 122.409 128.056 122.409 128.32C122.409 128.596 122.403 128.794 122.391 128.914C122.355 129.778 122.151 130.534 121.779 131.182C121.419 131.818 120.939 132.31 120.339 132.658C119.739 133.006 119.061 133.18 118.305 133.18C117.633 133.18 117.063 133.066 116.595 132.838C116.139 132.598 115.779 132.304 115.515 131.956V135.934ZM115.515 128.968C115.551 129.808 115.803 130.462 116.271 130.93C116.739 131.398 117.357 131.632 118.125 131.632C118.905 131.632 119.523 131.38 119.979 130.876C120.447 130.372 120.705 129.688 120.753 128.824C120.765 128.704 120.771 128.536 120.771 128.32C120.771 128.104 120.765 127.936 120.753 127.816C120.705 126.952 120.447 126.268 119.979 125.764C119.523 125.26 118.905 125.008 118.125 125.008C117.381 125.008 116.769 125.242 116.289 125.71C115.809 126.166 115.551 126.778 115.515 127.546L115.497 128.248L115.515 128.968ZM127.002 135.988C126.894 136.276 126.72 136.42 126.48 136.42H125.742C125.622 136.42 125.52 136.378 125.436 136.294C125.352 136.21 125.31 136.108 125.31 135.988C125.31 135.94 125.316 135.898 125.328 135.862L127.056 132.1L123.492 124.198C123.48 124.162 123.474 124.12 123.474 124.072C123.474 123.952 123.516 123.85 123.6 123.766C123.684 123.682 123.786 123.64 123.906 123.64H124.644C124.884 123.64 125.058 123.784 125.166 124.072L127.938 130.192L130.746 124.072C130.854 123.784 131.028 123.64 131.268 123.64H132.006C132.126 123.64 132.228 123.682 132.312 123.766C132.396 123.85 132.438 123.952 132.438 124.072C132.438 124.12 132.432 124.162 132.42 124.198L127.002 135.988ZM146.81 123.478C146.822 123.586 146.786 123.682 146.702 123.766C146.618 123.838 146.522 123.874 146.414 123.874H145.676C145.532 123.874 145.424 123.85 145.352 123.802C145.28 123.742 145.202 123.634 145.118 123.478C144.926 123.106 144.59 122.74 144.11 122.38C143.642 122.02 143.018 121.84 142.238 121.84C141.518 121.84 140.906 122.002 140.402 122.326C139.91 122.65 139.664 123.112 139.664 123.712C139.664 124.12 139.784 124.456 140.024 124.72C140.276 124.972 140.648 125.194 141.14 125.386C141.644 125.566 142.4 125.788 143.408 126.052C144.776 126.412 145.742 126.856 146.306 127.384C146.882 127.9 147.17 128.608 147.17 129.508C147.17 130.228 146.966 130.864 146.558 131.416C146.162 131.968 145.598 132.4 144.866 132.712C144.134 133.024 143.288 133.18 142.328 133.18C141.44 133.18 140.63 133.012 139.898 132.676C139.166 132.34 138.59 131.914 138.17 131.398C137.75 130.87 137.528 130.348 137.504 129.832C137.504 129.724 137.54 129.634 137.612 129.562C137.696 129.478 137.792 129.436 137.9 129.436H138.638C138.77 129.436 138.878 129.466 138.962 129.526C139.046 129.574 139.124 129.676 139.196 129.832C139.388 130.264 139.736 130.66 140.24 131.02C140.756 131.38 141.452 131.56 142.328 131.56C143.204 131.56 143.942 131.374 144.542 131.002C145.154 130.618 145.46 130.12 145.46 129.508C145.46 129.112 145.298 128.782 144.974 128.518C144.662 128.242 144.23 128.014 143.678 127.834C143.126 127.642 142.316 127.408 141.248 127.132C140.084 126.832 139.244 126.4 138.728 125.836C138.212 125.26 137.954 124.552 137.954 123.712C137.954 123.088 138.116 122.512 138.44 121.984C138.764 121.456 139.25 121.03 139.898 120.706C140.546 120.382 141.326 120.22 142.238 120.22C143.15 120.22 143.948 120.4 144.632 120.76C145.316 121.108 145.844 121.54 146.216 122.056C146.588 122.572 146.786 123.046 146.81 123.478ZM151.745 129.85C151.745 130.366 151.847 130.762 152.051 131.038C152.267 131.314 152.669 131.452 153.257 131.452H154.211C154.343 131.452 154.457 131.5 154.553 131.596C154.649 131.692 154.697 131.806 154.697 131.938V132.514C154.697 132.646 154.649 132.76 154.553 132.856C154.457 132.952 154.343 133 154.211 133H153.077C152.057 133 151.307 132.736 150.827 132.208C150.347 131.668 150.107 130.882 150.107 129.85V125.188H148.775C148.643 125.188 148.529 125.14 148.433 125.044C148.337 124.948 148.289 124.834 148.289 124.702V124.126C148.289 123.994 148.337 123.88 148.433 123.784C148.529 123.688 148.643 123.64 148.775 123.64H150.107V120.706C150.107 120.574 150.155 120.46 150.251 120.364C150.347 120.268 150.461 120.22 150.593 120.22H151.259C151.391 120.22 151.505 120.268 151.601 120.364C151.697 120.46 151.745 120.574 151.745 120.706V123.64H154.031C154.163 123.64 154.277 123.688 154.373 123.784C154.469 123.88 154.517 123.994 154.517 124.126V124.702C154.517 124.834 154.469 124.948 154.373 125.044C154.277 125.14 154.163 125.188 154.031 125.188H151.745V129.85ZM156.414 124.126C156.414 123.994 156.462 123.88 156.558 123.784C156.654 123.688 156.768 123.64 156.9 123.64H157.566C157.698 123.64 157.812 123.688 157.908 123.784C158.004 123.88 158.052 123.994 158.052 124.126V128.878C158.052 129.79 158.256 130.48 158.664 130.948C159.084 131.404 159.69 131.632 160.482 131.632C161.25 131.632 161.844 131.398 162.264 130.93C162.696 130.462 162.912 129.778 162.912 128.878V124.126C162.912 123.994 162.96 123.88 163.056 123.784C163.152 123.688 163.266 123.64 163.398 123.64H164.064C164.196 123.64 164.31 123.688 164.406 123.784C164.502 123.88 164.55 123.994 164.55 124.126V132.514C164.55 132.646 164.502 132.76 164.406 132.856C164.31 132.952 164.196 133 164.064 133H163.398C163.266 133 163.152 132.952 163.056 132.856C162.96 132.76 162.912 132.646 162.912 132.514V131.956C162.288 132.772 161.388 133.18 160.212 133.18C159.06 133.18 158.136 132.82 157.44 132.1C156.756 131.38 156.414 130.396 156.414 129.148V124.126ZM173.671 120.706C173.671 120.574 173.719 120.46 173.815 120.364C173.911 120.268 174.025 120.22 174.157 120.22H174.823C174.955 120.22 175.069 120.268 175.165 120.364C175.261 120.46 175.309 120.574 175.309 120.706V132.514C175.309 132.646 175.261 132.76 175.165 132.856C175.069 132.952 174.955 133 174.823 133H174.157C174.025 133 173.911 132.952 173.815 132.856C173.719 132.76 173.671 132.646 173.671 132.514V131.956C173.059 132.772 172.129 133.18 170.881 133.18C170.137 133.18 169.459 133.006 168.847 132.658C168.247 132.31 167.761 131.812 167.389 131.164C167.029 130.516 166.831 129.76 166.795 128.896L166.777 128.302L166.795 127.726C166.831 126.862 167.029 126.112 167.389 125.476C167.761 124.828 168.247 124.33 168.847 123.982C169.447 123.634 170.125 123.46 170.881 123.46C171.553 123.46 172.117 123.58 172.573 123.82C173.041 124.048 173.407 124.336 173.671 124.684V120.706ZM173.671 127.672C173.635 126.832 173.383 126.178 172.915 125.71C172.447 125.242 171.829 125.008 171.061 125.008C170.281 125.008 169.657 125.26 169.189 125.764C168.733 126.268 168.481 126.952 168.433 127.816L168.415 128.32L168.433 128.824C168.481 129.688 168.733 130.372 169.189 130.876C169.657 131.38 170.281 131.632 171.061 131.632C171.805 131.632 172.417 131.404 172.897 130.948C173.377 130.48 173.635 129.862 173.671 129.094C173.683 128.974 173.689 128.734 173.689 128.374C173.689 128.026 173.683 127.792 173.671 127.672ZM181.692 123.46C182.976 123.46 183.99 123.868 184.734 124.684C185.478 125.5 185.85 126.61 185.85 128.014V128.5C185.85 128.632 185.802 128.746 185.706 128.842C185.61 128.938 185.496 128.986 185.364 128.986H179.172V129.094C179.196 129.886 179.436 130.51 179.892 130.966C180.36 131.41 180.96 131.632 181.692 131.632C182.292 131.632 182.754 131.554 183.078 131.398C183.414 131.242 183.714 131.02 183.978 130.732C184.074 130.636 184.158 130.57 184.23 130.534C184.314 130.498 184.422 130.48 184.554 130.48H185.094C185.238 130.48 185.358 130.528 185.454 130.624C185.55 130.72 185.592 130.834 185.58 130.966C185.532 131.29 185.352 131.626 185.04 131.974C184.74 132.31 184.302 132.598 183.726 132.838C183.162 133.066 182.484 133.18 181.692 133.18C180.924 133.18 180.24 133.006 179.64 132.658C179.04 132.298 178.56 131.806 178.2 131.182C177.852 130.558 177.642 129.856 177.57 129.076C177.546 128.716 177.534 128.44 177.534 128.248C177.534 128.056 177.546 127.78 177.57 127.42C177.642 126.676 177.852 126.004 178.2 125.404C178.56 124.804 179.034 124.33 179.622 123.982C180.222 123.634 180.912 123.46 181.692 123.46ZM184.23 127.474V127.42C184.23 126.688 183.996 126.106 183.528 125.674C183.072 125.23 182.46 125.008 181.692 125.008C180.996 125.008 180.402 125.23 179.91 125.674C179.43 126.118 179.184 126.7 179.172 127.42V127.474H184.23ZM196.338 132.514C196.338 132.646 196.29 132.76 196.194 132.856C196.098 132.952 195.984 133 195.852 133H195.186C195.054 133 194.94 132.952 194.844 132.856C194.748 132.76 194.7 132.646 194.7 132.514V127.762C194.7 126.862 194.478 126.178 194.034 125.71C193.59 125.242 192.972 125.008 192.18 125.008C191.4 125.008 190.782 125.242 190.326 125.71C189.882 126.178 189.66 126.862 189.66 127.762V132.514C189.66 132.646 189.612 132.76 189.516 132.856C189.42 132.952 189.306 133 189.174 133H188.508C188.376 133 188.262 132.952 188.166 132.856C188.07 132.76 188.022 132.646 188.022 132.514V124.126C188.022 123.994 188.07 123.88 188.166 123.784C188.262 123.688 188.376 123.64 188.508 123.64H189.174C189.306 123.64 189.42 123.688 189.516 123.784C189.612 123.88 189.66 123.994 189.66 124.126V124.684C189.924 124.336 190.284 124.048 190.74 123.82C191.208 123.58 191.778 123.46 192.45 123.46C193.206 123.46 193.878 123.622 194.466 123.946C195.054 124.27 195.51 124.738 195.834 125.35C196.17 125.95 196.338 126.664 196.338 127.492V132.514ZM201.263 129.85C201.263 130.366 201.365 130.762 201.569 131.038C201.785 131.314 202.187 131.452 202.775 131.452H203.729C203.861 131.452 203.975 131.5 204.071 131.596C204.167 131.692 204.215 131.806 204.215 131.938V132.514C204.215 132.646 204.167 132.76 204.071 132.856C203.975 132.952 203.861 133 203.729 133H202.595C201.575 133 200.825 132.736 200.345 132.208C199.865 131.668 199.625 130.882 199.625 129.85V125.188H198.293C198.161 125.188 198.047 125.14 197.951 125.044C197.855 124.948 197.807 124.834 197.807 124.702V124.126C197.807 123.994 197.855 123.88 197.951 123.784C198.047 123.688 198.161 123.64 198.293 123.64H199.625V120.706C199.625 120.574 199.673 120.46 199.769 120.364C199.865 120.268 199.979 120.22 200.111 120.22H200.777C200.909 120.22 201.023 120.268 201.119 120.364C201.215 120.46 201.263 120.574 201.263 120.706V123.64H203.549C203.681 123.64 203.795 123.688 203.891 123.784C203.987 123.88 204.035 123.994 204.035 124.126V124.702C204.035 124.834 203.987 124.948 203.891 125.044C203.795 125.14 203.681 125.188 203.549 125.188H201.263V129.85ZM208.272 128.842C206.52 128.47 205.644 127.576 205.644 126.16C205.644 125.668 205.776 125.218 206.04 124.81C206.304 124.402 206.694 124.078 207.21 123.838C207.738 123.586 208.38 123.46 209.136 123.46C209.88 123.46 210.522 123.568 211.062 123.784C211.602 124 212.01 124.27 212.286 124.594C212.574 124.918 212.718 125.23 212.718 125.53C212.718 125.65 212.67 125.758 212.574 125.854C212.478 125.938 212.364 125.98 212.232 125.98H211.638C211.41 125.98 211.23 125.896 211.098 125.728C210.726 125.248 210.072 125.008 209.136 125.008C208.584 125.008 208.134 125.11 207.786 125.314C207.45 125.518 207.282 125.8 207.282 126.16C207.282 126.46 207.366 126.688 207.534 126.844C207.702 127 207.954 127.126 208.29 127.222C208.626 127.318 209.22 127.462 210.072 127.654C211.128 127.882 211.878 128.23 212.322 128.698C212.766 129.166 212.988 129.736 212.988 130.408C212.988 130.9 212.832 131.356 212.52 131.776C212.22 132.196 211.782 132.538 211.206 132.802C210.642 133.054 209.982 133.18 209.226 133.18C208.482 133.18 207.822 133.066 207.246 132.838C206.682 132.598 206.244 132.31 205.932 131.974C205.62 131.638 205.464 131.32 205.464 131.02C205.464 130.9 205.512 130.798 205.608 130.714C205.704 130.618 205.818 130.57 205.95 130.57H206.598C206.706 130.57 206.802 130.582 206.886 130.606C206.97 130.63 207.048 130.696 207.12 130.804C207.516 131.356 208.218 131.632 209.226 131.632C209.79 131.632 210.282 131.518 210.702 131.29C211.134 131.05 211.35 130.756 211.35 130.408C211.35 130.12 211.242 129.892 211.026 129.724C210.822 129.544 210.522 129.4 210.126 129.292C209.73 129.172 209.112 129.022 208.272 128.842Z" fill="#6F6F76"/>
<g filter="url(#filter1_d_3_400)">
<circle cx="145.936" cy="36" r="24" fill="#51C8FF"/>
</g>
<path d="M140.936 27C138.175 27 135.936 29.216 135.936 31.95C135.936 34.157 136.811 39.395 145.424 44.69C145.578 44.7839 145.755 44.8335 145.936 44.8335C146.116 44.8335 146.293 44.7839 146.448 44.69C155.061 39.395 155.936 34.157 155.936 31.95C155.936 29.216 153.697 27 150.936 27C148.175 27 145.936 30 145.936 30C145.936 30 143.697 27 140.936 27Z" stroke="white" stroke-width="2" stroke-linecap="round" stroke-linejoin="round"/>
<defs>
<filter id="filter0_d_3_400" x="0.935547" y="1" width="300" height="300" filterUnits="userSpaceOnUse" color-interpolation-filters="sRGB">
<feFlood flood-opacity="0" result="BackgroundImageFix"/>
<feColorMatrix in="SourceAlpha" type="matrix" values="0 0 0 0 0 0 0 0 0 0 0 0 0 0 0 0 0 0 127 0" result="hardAlpha"/>
<feOffset dx="5" dy="15"/>
<feGaussianBlur stdDeviation="25"/>
<feColorMatrix type="matrix" values="0 0 0 0 0 0 0 0 0 0 0 0 0 0 0 0 0 0 0.1 0"/>
<feBlend mode="normal" in2="BackgroundImageFix" result="effect1_dropShadow_3_400"/>
<feBlend mode="normal" in="SourceGraphic" in2="effect1_dropShadow_3_400" result="shape"/>
</filter>
<filter id="filter1_d_3_400" x="103.936" y="0" width="88" height="88" filterUnits="userSpaceOnUse" color-interpolation-filters="sRGB">
<feFlood flood-opacity="0" result="BackgroundImageFix"/>
<feColorMatrix in="SourceAlpha" type="matrix" values="0 0 0 0 0 0 0 0 0 0 0 0 0 0 0 0 0 0 127 0" result="hardAlpha"/>
<feOffset dx="2" dy="8"/>
<feGaussianBlur stdDeviation="10"/>
<feColorMatrix type="matrix" values="0 0 0 0 0.317647 0 0 0 0 0.784314 0 0 0 0 1 0 0 0 0.5 0"/>
<feBlend mode="normal" in2="BackgroundImageFix" result="effect1_dropShadow_3_400"/>
<feBlend mode="normal" in="SourceGraphic" in2="effect1_dropShadow_3_400" result="shape"/>
</filter>
</defs>
</svg>
