<svg width="301" height="212" viewBox="0 0 301 212" fill="none" xmlns="http://www.w3.org/2000/svg">
<g filter="url(#filter0_d_3_416)">
<rect x="45.9355" y="36" width="200" height="111" rx="20" fill="white"/>
</g>
<path d="M81.4955 80.4C81.4955 83.744 83.9435 86.096 87.1595 86.096C89.6395 86.096 91.6555 84.784 92.4075 82.48H89.8315C89.3035 83.568 88.3435 84.096 87.1435 84.096C85.1915 84.096 83.7995 82.656 83.7995 80.4C83.7995 78.128 85.1915 76.704 87.1435 76.704C88.3435 76.704 89.3035 77.232 89.8315 78.304H92.4075C91.6555 76.016 89.6395 74.688 87.1595 74.688C83.9435 74.688 81.4955 77.056 81.4955 80.4ZM102.881 81.568C102.881 78.768 100.881 76.992 98.3208 76.992C95.7608 76.992 93.7608 78.768 93.7608 81.568C93.7608 84.352 95.6968 86.144 98.2568 86.144C100.833 86.144 102.881 84.352 102.881 81.568ZM96.0328 81.568C96.0328 79.792 97.1048 78.944 98.2888 78.944C99.4728 78.944 100.577 79.792 100.577 81.568C100.577 83.328 99.4408 84.192 98.2568 84.192C97.0568 84.192 96.0328 83.328 96.0328 81.568ZM110.732 86H112.972V80.8C112.972 78.352 111.5 77.008 109.436 77.008C108.3 77.008 107.34 77.488 106.764 78.24V77.136H104.524V86H106.764V81.104C106.764 79.68 107.548 78.912 108.764 78.912C109.948 78.912 110.732 79.68 110.732 81.104V86ZM114.526 81.536C114.526 84.304 116.318 86.144 118.574 86.144C119.966 86.144 120.974 85.456 121.502 84.688V86.064C121.502 87.712 120.542 88.416 119.31 88.416C118.19 88.416 117.358 87.888 117.134 87.088H114.91C115.134 89.12 116.878 90.368 119.374 90.368C122.286 90.368 123.758 88.464 123.758 86.064V77.136H121.502V78.4C120.974 77.632 119.966 76.992 118.574 76.992C116.318 76.992 114.526 78.768 114.526 81.536ZM121.502 81.568C121.502 83.248 120.382 84.176 119.15 84.176C117.95 84.176 116.814 83.216 116.814 81.536C116.814 79.856 117.95 78.96 119.15 78.96C120.382 78.96 121.502 79.888 121.502 81.568ZM128.186 81.584C128.186 79.872 128.986 79.36 130.314 79.36H130.906V77.008C129.674 77.008 128.746 77.6 128.186 78.512V77.136H125.946V86H128.186V81.584ZM131.839 81.536C131.839 84.304 133.631 86.144 135.871 86.144C137.279 86.144 138.287 85.472 138.815 84.704V86H141.071V77.136H138.815V78.4C138.287 77.664 137.311 76.992 135.887 76.992C133.631 76.992 131.839 78.768 131.839 81.536ZM138.815 81.568C138.815 83.248 137.695 84.176 136.463 84.176C135.263 84.176 134.127 83.216 134.127 81.536C134.127 79.856 135.263 78.96 136.463 78.96C137.695 78.96 138.815 79.888 138.815 81.568ZM143.61 83.248C143.61 85.28 144.746 86 146.442 86H147.85V84.112H146.81C146.106 84.112 145.866 83.856 145.866 83.264V78.976H147.85V77.136H145.866V74.944H143.61V77.136H142.554V78.976H143.61V83.248ZM157.829 77.136H155.573V82.016C155.573 83.44 154.805 84.208 153.589 84.208C152.405 84.208 151.621 83.44 151.621 82.016V77.136H149.381V82.336C149.381 84.768 150.869 86.112 152.933 86.112C154.037 86.112 155.013 85.632 155.573 84.88V86H157.829V77.136ZM160.04 86H162.28V74.16H160.04V86ZM163.917 81.536C163.917 84.304 165.709 86.144 167.949 86.144C169.357 86.144 170.365 85.472 170.893 84.704V86H173.149V77.136H170.893V78.4C170.365 77.664 169.389 76.992 167.965 76.992C165.709 76.992 163.917 78.768 163.917 81.536ZM170.893 81.568C170.893 83.248 169.773 84.176 168.541 84.176C167.341 84.176 166.205 83.216 166.205 81.536C166.205 79.856 167.341 78.96 168.541 78.96C169.773 78.96 170.893 79.888 170.893 81.568ZM175.688 83.248C175.688 85.28 176.824 86 178.52 86H179.928V84.112H178.888C178.184 84.112 177.944 83.856 177.944 83.264V78.976H179.928V77.136H177.944V74.944H175.688V77.136H174.632V78.976H175.688V83.248ZM181.54 86H183.78V77.136H181.54V86ZM182.676 76.08C183.46 76.08 184.052 75.504 184.052 74.768C184.052 74.032 183.46 73.456 182.676 73.456C181.876 73.456 181.3 74.032 181.3 74.768C181.3 75.504 181.876 76.08 182.676 76.08ZM194.553 81.568C194.553 78.768 192.553 76.992 189.993 76.992C187.433 76.992 185.433 78.768 185.433 81.568C185.433 84.352 187.369 86.144 189.929 86.144C192.505 86.144 194.553 84.352 194.553 81.568ZM187.705 81.568C187.705 79.792 188.777 78.944 189.961 78.944C191.145 78.944 192.249 79.792 192.249 81.568C192.249 83.328 191.113 84.192 189.929 84.192C188.729 84.192 187.705 83.328 187.705 81.568ZM202.404 86H204.644V80.8C204.644 78.352 203.172 77.008 201.108 77.008C199.972 77.008 199.012 77.488 198.436 78.24V77.136H196.196V86H198.436V81.104C198.436 79.68 199.22 78.912 200.436 78.912C201.62 78.912 202.404 79.68 202.404 81.104V86ZM207.526 82.368H209.414L209.67 74.64H207.254L207.526 82.368ZM209.878 84.8C209.878 84.064 209.302 83.488 208.518 83.488C207.702 83.488 207.126 84.064 207.126 84.8C207.126 85.536 207.702 86.112 208.518 86.112C209.302 86.112 209.878 85.536 209.878 84.8Z" fill="#111116"/>
<path d="M78.027 114.568C78.027 114.685 77.9844 114.787 77.899 114.872C77.8137 114.957 77.7124 115 77.595 115H76.939C76.8217 115 76.7204 114.957 76.635 114.872C76.5497 114.787 76.507 114.685 76.507 114.568V110.824L72.683 104.376C72.6297 104.28 72.603 104.205 72.603 104.152C72.603 104.056 72.635 103.976 72.699 103.912C72.7737 103.837 72.859 103.8 72.955 103.8H73.643C73.835 103.8 73.9737 103.837 74.059 103.912C74.155 103.976 74.2404 104.072 74.315 104.2L77.259 109.288L80.219 104.2C80.2937 104.072 80.3737 103.976 80.459 103.912C80.555 103.837 80.699 103.8 80.891 103.8H81.579C81.675 103.8 81.755 103.837 81.819 103.912C81.8937 103.976 81.931 104.056 81.931 104.152C81.931 104.205 81.9044 104.28 81.851 104.376L78.027 110.824V114.568ZM89.4449 110.088C89.4663 110.323 89.4769 110.579 89.4769 110.856C89.4769 111.112 89.4663 111.357 89.4449 111.592C89.3489 112.68 88.9703 113.549 88.3089 114.2C87.6583 114.84 86.7729 115.16 85.6529 115.16C84.5329 115.16 83.6423 114.84 82.9809 114.2C82.3303 113.549 81.9569 112.68 81.8609 111.592C81.8503 111.475 81.8449 111.229 81.8449 110.856C81.8449 110.461 81.8503 110.205 81.8609 110.088C81.9463 109 82.3196 108.136 82.9809 107.496C83.6423 106.845 84.5329 106.52 85.6529 106.52C86.7729 106.52 87.6636 106.845 88.3249 107.496C88.9863 108.136 89.3596 109 89.4449 110.088ZM87.9889 110.168C87.9249 109.485 87.6956 108.936 87.3009 108.52C86.9169 108.104 86.3676 107.896 85.6529 107.896C84.9383 107.896 84.3836 108.104 83.9889 108.52C83.6049 108.936 83.3809 109.485 83.3169 110.168C83.3063 110.296 83.3009 110.525 83.3009 110.856C83.3009 111.176 83.3063 111.395 83.3169 111.512C83.3809 112.195 83.6049 112.744 83.9889 113.16C84.3836 113.576 84.9383 113.784 85.6529 113.784C86.3676 113.784 86.9169 113.576 87.3009 113.16C87.6956 112.744 87.9249 112.195 87.9889 111.512C88.0103 111.277 88.0209 111.059 88.0209 110.856C88.0209 110.653 88.0103 110.424 87.9889 110.168ZM91.3993 107.112C91.3993 106.995 91.442 106.893 91.5273 106.808C91.6126 106.723 91.714 106.68 91.8313 106.68H92.4233C92.5406 106.68 92.642 106.723 92.7273 106.808C92.8126 106.893 92.8553 106.995 92.8553 107.112V111.336C92.8553 112.147 93.0366 112.76 93.3993 113.176C93.7726 113.581 94.3113 113.784 95.0153 113.784C95.698 113.784 96.226 113.576 96.5993 113.16C96.9833 112.744 97.1753 112.136 97.1753 111.336V107.112C97.1753 106.995 97.218 106.893 97.3033 106.808C97.3886 106.723 97.49 106.68 97.6073 106.68H98.1993C98.3166 106.68 98.418 106.723 98.5033 106.808C98.5886 106.893 98.6313 106.995 98.6313 107.112V114.568C98.6313 114.685 98.5886 114.787 98.5033 114.872C98.418 114.957 98.3166 115 98.1993 115H97.6073C97.49 115 97.3886 114.957 97.3033 114.872C97.218 114.787 97.1753 114.685 97.1753 114.568V114.072C96.6206 114.797 95.8206 115.16 94.7753 115.16C93.7513 115.16 92.93 114.84 92.3113 114.2C91.7033 113.56 91.3993 112.685 91.3993 111.576V107.112ZM108.164 106.52C108.762 106.52 109.263 106.627 109.668 106.84C110.084 107.043 110.41 107.299 110.644 107.608V107.112C110.644 106.995 110.687 106.893 110.772 106.808C110.858 106.723 110.959 106.68 111.076 106.68H111.668C111.786 106.68 111.887 106.723 111.972 106.808C112.058 106.893 112.1 106.995 112.1 107.112V114.888C112.1 116.019 111.78 116.904 111.14 117.544C110.5 118.195 109.562 118.52 108.324 118.52C107.524 118.52 106.852 118.397 106.308 118.152C105.764 117.907 105.359 117.603 105.092 117.24C104.836 116.877 104.698 116.509 104.676 116.136C104.666 116.019 104.703 115.917 104.788 115.832C104.884 115.747 104.991 115.704 105.108 115.704H105.588C105.716 115.704 105.818 115.736 105.892 115.8C105.967 115.864 106.042 115.976 106.116 116.136C106.223 116.381 106.426 116.611 106.724 116.824C107.023 117.037 107.503 117.144 108.164 117.144C109.818 117.144 110.644 116.456 110.644 115.08V114.072C110.1 114.797 109.274 115.16 108.164 115.16C107.503 115.16 106.9 115.005 106.356 114.696C105.823 114.387 105.391 113.949 105.06 113.384C104.74 112.808 104.564 112.136 104.532 111.368L104.516 110.84L104.532 110.312C104.564 109.544 104.74 108.877 105.06 108.312C105.391 107.736 105.823 107.293 106.356 106.984C106.89 106.675 107.492 106.52 108.164 106.52ZM108.324 107.896C107.631 107.896 107.076 108.12 106.66 108.568C106.255 109.016 106.031 109.624 105.988 110.392L105.972 110.84L105.988 111.288C106.031 112.056 106.255 112.664 106.66 113.112C107.076 113.56 107.631 113.784 108.324 113.784C109.007 113.784 109.556 113.576 109.972 113.16C110.388 112.733 110.612 112.152 110.644 111.416C110.655 111.309 110.66 111.117 110.66 110.84C110.66 110.563 110.655 110.371 110.644 110.264C110.612 109.517 110.388 108.936 109.972 108.52C109.556 108.104 109.007 107.896 108.324 107.896ZM121.695 110.088C121.716 110.323 121.727 110.579 121.727 110.856C121.727 111.112 121.716 111.357 121.695 111.592C121.599 112.68 121.22 113.549 120.559 114.2C119.908 114.84 119.023 115.16 117.903 115.16C116.783 115.16 115.892 114.84 115.231 114.2C114.58 113.549 114.207 112.68 114.111 111.592C114.1 111.475 114.095 111.229 114.095 110.856C114.095 110.461 114.1 110.205 114.111 110.088C114.196 109 114.57 108.136 115.231 107.496C115.892 106.845 116.783 106.52 117.903 106.52C119.023 106.52 119.914 106.845 120.575 107.496C121.236 108.136 121.61 109 121.695 110.088ZM120.239 110.168C120.175 109.485 119.946 108.936 119.551 108.52C119.167 108.104 118.618 107.896 117.903 107.896C117.188 107.896 116.634 108.104 116.239 108.52C115.855 108.936 115.631 109.485 115.567 110.168C115.556 110.296 115.551 110.525 115.551 110.856C115.551 111.176 115.556 111.395 115.567 111.512C115.631 112.195 115.855 112.744 116.239 113.16C116.634 113.576 117.188 113.784 117.903 113.784C118.618 113.784 119.167 113.576 119.551 113.16C119.946 112.744 120.175 112.195 120.239 111.512C120.26 111.277 120.271 111.059 120.271 110.856C120.271 110.653 120.26 110.424 120.239 110.168ZM125.796 112.2C125.796 112.659 125.887 113.011 126.068 113.256C126.26 113.501 126.617 113.624 127.14 113.624H127.988C128.105 113.624 128.207 113.667 128.292 113.752C128.377 113.837 128.42 113.939 128.42 114.056V114.568C128.42 114.685 128.377 114.787 128.292 114.872C128.207 114.957 128.105 115 127.988 115H126.98C126.073 115 125.407 114.765 124.98 114.296C124.553 113.816 124.34 113.117 124.34 112.2V108.056H123.156C123.039 108.056 122.937 108.013 122.852 107.928C122.767 107.843 122.724 107.741 122.724 107.624V107.112C122.724 106.995 122.767 106.893 122.852 106.808C122.937 106.723 123.039 106.68 123.156 106.68H124.34V104.072C124.34 103.955 124.383 103.853 124.468 103.768C124.553 103.683 124.655 103.64 124.772 103.64H125.364C125.481 103.64 125.583 103.683 125.668 103.768C125.753 103.853 125.796 103.955 125.796 104.072V106.68H127.828C127.945 106.68 128.047 106.723 128.132 106.808C128.217 106.893 128.26 106.995 128.26 107.112V107.624C128.26 107.741 128.217 107.843 128.132 107.928C128.047 108.013 127.945 108.056 127.828 108.056H125.796V112.2ZM138.876 109.736V109.528C138.876 109.005 138.7 108.605 138.348 108.328C138.007 108.04 137.559 107.896 137.004 107.896C136.578 107.896 136.242 107.971 135.996 108.12C135.762 108.259 135.538 108.472 135.324 108.76C135.26 108.845 135.191 108.904 135.116 108.936C135.042 108.968 134.94 108.984 134.812 108.984H134.332C134.215 108.984 134.108 108.941 134.012 108.856C133.927 108.771 133.89 108.669 133.9 108.552C133.932 108.232 134.087 107.917 134.364 107.608C134.652 107.288 135.031 107.027 135.5 106.824C135.97 106.621 136.471 106.52 137.004 106.52C137.996 106.52 138.796 106.797 139.404 107.352C140.023 107.907 140.332 108.685 140.332 109.688V114.568C140.332 114.685 140.29 114.787 140.204 114.872C140.119 114.957 140.018 115 139.9 115H139.308C139.191 115 139.09 114.957 139.004 114.872C138.919 114.787 138.876 114.685 138.876 114.568V113.912C138.706 114.296 138.343 114.6 137.788 114.824C137.234 115.048 136.679 115.16 136.124 115.16C135.58 115.16 135.095 115.064 134.668 114.872C134.242 114.669 133.911 114.397 133.676 114.056C133.452 113.715 133.34 113.331 133.34 112.904C133.34 112.104 133.639 111.48 134.236 111.032C134.834 110.573 135.628 110.264 136.62 110.104L138.876 109.736ZM138.876 111.016L136.988 111.32C136.295 111.427 135.756 111.603 135.372 111.848C134.988 112.083 134.796 112.381 134.796 112.744C134.796 113.011 134.919 113.251 135.164 113.464C135.41 113.677 135.783 113.784 136.284 113.784C137.052 113.784 137.676 113.565 138.156 113.128C138.636 112.691 138.876 112.12 138.876 111.416V111.016ZM153.965 114.568C153.965 114.685 153.922 114.787 153.837 114.872C153.752 114.957 153.65 115 153.533 115H152.941C152.824 115 152.722 114.957 152.637 114.872C152.552 114.787 152.509 114.685 152.509 114.568V110.344C152.509 109.544 152.312 108.936 151.917 108.52C151.522 108.104 150.973 107.896 150.269 107.896C149.576 107.896 149.026 108.104 148.621 108.52C148.226 108.936 148.029 109.544 148.029 110.344V114.568C148.029 114.685 147.986 114.787 147.901 114.872C147.816 114.957 147.714 115 147.597 115H147.005C146.888 115 146.786 114.957 146.701 114.872C146.616 114.787 146.573 114.685 146.573 114.568V107.112C146.573 106.995 146.616 106.893 146.701 106.808C146.786 106.723 146.888 106.68 147.005 106.68H147.597C147.714 106.68 147.816 106.723 147.901 106.808C147.986 106.893 148.029 106.995 148.029 107.112V107.608C148.264 107.299 148.584 107.043 148.989 106.84C149.405 106.627 149.912 106.52 150.509 106.52C151.181 106.52 151.778 106.664 152.301 106.952C152.824 107.24 153.229 107.656 153.517 108.2C153.816 108.733 153.965 109.368 153.965 110.104V114.568ZM159.572 106.52C160.713 106.52 161.614 106.883 162.276 107.608C162.937 108.333 163.268 109.32 163.268 110.568V111C163.268 111.117 163.225 111.219 163.14 111.304C163.054 111.389 162.953 111.432 162.836 111.432H157.332V111.528C157.353 112.232 157.566 112.787 157.972 113.192C158.388 113.587 158.921 113.784 159.572 113.784C160.105 113.784 160.516 113.715 160.804 113.576C161.102 113.437 161.369 113.24 161.604 112.984C161.689 112.899 161.764 112.84 161.828 112.808C161.902 112.776 161.998 112.76 162.116 112.76H162.596C162.724 112.76 162.83 112.803 162.916 112.888C163.001 112.973 163.038 113.075 163.028 113.192C162.985 113.48 162.825 113.779 162.548 114.088C162.281 114.387 161.892 114.643 161.38 114.856C160.878 115.059 160.276 115.16 159.572 115.16C158.889 115.16 158.281 115.005 157.748 114.696C157.214 114.376 156.788 113.939 156.468 113.384C156.158 112.829 155.972 112.205 155.908 111.512C155.886 111.192 155.876 110.947 155.876 110.776C155.876 110.605 155.886 110.36 155.908 110.04C155.972 109.379 156.158 108.781 156.468 108.248C156.788 107.715 157.209 107.293 157.732 106.984C158.265 106.675 158.878 106.52 159.572 106.52ZM161.828 110.088V110.04C161.828 109.389 161.62 108.872 161.204 108.488C160.798 108.093 160.254 107.896 159.572 107.896C158.953 107.896 158.425 108.093 157.988 108.488C157.561 108.883 157.342 109.4 157.332 110.04V110.088H161.828ZM174.58 107.064C174.676 106.808 174.857 106.68 175.124 106.68H175.652C175.758 106.68 175.849 106.717 175.924 106.792C175.998 106.867 176.036 106.957 176.036 107.064L176.02 107.192L173.572 114.552C173.476 114.851 173.316 115 173.092 115H172.596C172.468 115 172.366 114.963 172.292 114.888C172.217 114.803 172.153 114.691 172.1 114.552L170.196 109.24L168.292 114.552C168.238 114.691 168.174 114.803 168.1 114.888C168.025 114.963 167.924 115 167.796 115H167.3C167.076 115 166.916 114.851 166.82 114.552L164.372 107.192L164.356 107.064C164.356 106.957 164.393 106.867 164.468 106.792C164.542 106.717 164.633 106.68 164.74 106.68H165.268C165.534 106.68 165.716 106.808 165.812 107.064L167.604 112.408L169.524 107.064C169.62 106.808 169.785 106.68 170.02 106.68H170.372C170.606 106.68 170.772 106.808 170.868 107.064L172.788 112.408L174.58 107.064ZM184.634 106.52C185.776 106.52 186.677 106.883 187.338 107.608C188 108.333 188.33 109.32 188.33 110.568V111C188.33 111.117 188.288 111.219 188.202 111.304C188.117 111.389 188.016 111.432 187.898 111.432H182.394V111.528C182.416 112.232 182.629 112.787 183.034 113.192C183.45 113.587 183.984 113.784 184.634 113.784C185.168 113.784 185.578 113.715 185.866 113.576C186.165 113.437 186.432 113.24 186.666 112.984C186.752 112.899 186.826 112.84 186.89 112.808C186.965 112.776 187.061 112.76 187.178 112.76H187.658C187.786 112.76 187.893 112.803 187.978 112.888C188.064 112.973 188.101 113.075 188.09 113.192C188.048 113.48 187.888 113.779 187.61 114.088C187.344 114.387 186.954 114.643 186.442 114.856C185.941 115.059 185.338 115.16 184.634 115.16C183.952 115.16 183.344 115.005 182.81 114.696C182.277 114.376 181.85 113.939 181.53 113.384C181.221 112.829 181.034 112.205 180.97 111.512C180.949 111.192 180.938 110.947 180.938 110.776C180.938 110.605 180.949 110.36 180.97 110.04C181.034 109.379 181.221 108.781 181.53 108.248C181.85 107.715 182.272 107.293 182.794 106.984C183.328 106.675 183.941 106.52 184.634 106.52ZM186.89 110.088V110.04C186.89 109.389 186.682 108.872 186.266 108.488C185.861 108.093 185.317 107.896 184.634 107.896C184.016 107.896 183.488 108.093 183.05 108.488C182.624 108.883 182.405 109.4 182.394 110.04V110.088H186.89ZM191.717 107.608C191.973 107.277 192.261 107.016 192.581 106.824C192.901 106.621 193.327 106.52 193.861 106.52C195.109 106.52 195.983 106.984 196.485 107.912C196.794 107.464 197.146 107.123 197.541 106.888C197.935 106.643 198.453 106.52 199.093 106.52C200.138 106.52 200.911 106.835 201.413 107.464C201.925 108.093 202.181 108.984 202.181 110.136V114.568C202.181 114.685 202.138 114.787 202.053 114.872C201.967 114.957 201.866 115 201.749 115H201.157C201.039 115 200.938 114.957 200.853 114.872C200.767 114.787 200.725 114.685 200.725 114.568V110.296C200.725 108.696 200.095 107.896 198.837 107.896C198.261 107.896 197.802 108.088 197.461 108.472C197.119 108.856 196.949 109.427 196.949 110.184V114.568C196.949 114.685 196.906 114.787 196.821 114.872C196.735 114.957 196.634 115 196.517 115H195.925C195.807 115 195.706 114.957 195.621 114.872C195.535 114.787 195.493 114.685 195.493 114.568V110.296C195.493 108.696 194.863 107.896 193.605 107.896C193.029 107.896 192.57 108.088 192.229 108.472C191.887 108.856 191.717 109.427 191.717 110.184V114.568C191.717 114.685 191.674 114.787 191.589 114.872C191.503 114.957 191.402 115 191.285 115H190.693C190.575 115 190.474 114.957 190.389 114.872C190.303 114.787 190.261 114.685 190.261 114.568V107.112C190.261 106.995 190.303 106.893 190.389 106.808C190.474 106.723 190.575 106.68 190.693 106.68H191.285C191.402 106.68 191.503 106.723 191.589 106.808C191.674 106.893 191.717 106.995 191.717 107.112V107.608ZM209.439 109.736V109.528C209.439 109.005 209.263 108.605 208.911 108.328C208.57 108.04 208.122 107.896 207.567 107.896C207.14 107.896 206.804 107.971 206.559 108.12C206.324 108.259 206.1 108.472 205.887 108.76C205.823 108.845 205.754 108.904 205.679 108.936C205.604 108.968 205.503 108.984 205.375 108.984H204.895C204.778 108.984 204.671 108.941 204.575 108.856C204.49 108.771 204.452 108.669 204.463 108.552C204.495 108.232 204.65 107.917 204.927 107.608C205.215 107.288 205.594 107.027 206.063 106.824C206.532 106.621 207.034 106.52 207.567 106.52C208.559 106.52 209.359 106.797 209.967 107.352C210.586 107.907 210.895 108.685 210.895 109.688V114.568C210.895 114.685 210.852 114.787 210.767 114.872C210.682 114.957 210.58 115 210.463 115H209.871C209.754 115 209.652 114.957 209.567 114.872C209.482 114.787 209.439 114.685 209.439 114.568V113.912C209.268 114.296 208.906 114.6 208.351 114.824C207.796 115.048 207.242 115.16 206.687 115.16C206.143 115.16 205.658 115.064 205.231 114.872C204.804 114.669 204.474 114.397 204.239 114.056C204.015 113.715 203.903 113.331 203.903 112.904C203.903 112.104 204.202 111.48 204.799 111.032C205.396 110.573 206.191 110.264 207.183 110.104L209.439 109.736ZM209.439 111.016L207.551 111.32C206.858 111.427 206.319 111.603 205.935 111.848C205.551 112.083 205.359 112.381 205.359 112.744C205.359 113.011 205.482 113.251 205.727 113.464C205.972 113.677 206.346 113.784 206.847 113.784C207.615 113.784 208.239 113.565 208.719 113.128C209.199 112.691 209.439 112.12 209.439 111.416V111.016ZM214.845 104.984C214.845 105.101 214.803 105.203 214.717 105.288C214.632 105.373 214.531 105.416 214.413 105.416H213.501C213.384 105.416 213.283 105.373 213.197 105.288C213.112 105.203 213.069 105.101 213.069 104.984V104.072C213.069 103.955 213.112 103.853 213.197 103.768C213.283 103.683 213.384 103.64 213.501 103.64H214.413C214.531 103.64 214.632 103.683 214.717 103.768C214.803 103.853 214.845 103.955 214.845 104.072V104.984ZM214.685 114.568C214.685 114.685 214.643 114.787 214.557 114.872C214.472 114.957 214.371 115 214.253 115H213.661C213.544 115 213.443 114.957 213.357 114.872C213.272 114.787 213.229 114.685 213.229 114.568V107.112C213.229 106.995 213.272 106.893 213.357 106.808C213.443 106.723 213.544 106.68 213.661 106.68H214.253C214.371 106.68 214.472 106.723 214.557 106.808C214.643 106.893 214.685 106.995 214.685 107.112V114.568ZM218.545 114.568C218.545 114.685 218.502 114.787 218.417 114.872C218.331 114.957 218.23 115 218.113 115H217.521C217.403 115 217.302 114.957 217.217 114.872C217.131 114.787 217.089 114.685 217.089 114.568V104.072C217.089 103.955 217.131 103.853 217.217 103.768C217.302 103.683 217.403 103.64 217.521 103.64H218.113C218.23 103.64 218.331 103.683 218.417 103.768C218.502 103.853 218.545 103.955 218.545 104.072V114.568Z" fill="#6F6F76"/>
<g filter="url(#filter1_d_3_416)">
<circle cx="145.936" cy="36" r="24" fill="#6B47FC"/>
</g>
<path d="M153.936 29H137.936C137.383 29 136.936 29.4477 136.936 30V42C136.936 42.5523 137.383 43 137.936 43H153.936C154.488 43 154.936 42.5523 154.936 42V30C154.936 29.4477 154.488 29 153.936 29Z" stroke="white" stroke-width="2" stroke-linecap="round"/>
<path d="M136.936 30.5L145.936 36L154.936 30.5" stroke="white" stroke-width="2" stroke-linecap="round"/>
<defs>
<filter id="filter0_d_3_416" x="0.935547" y="1" width="300" height="211" filterUnits="userSpaceOnUse" color-interpolation-filters="sRGB">
<feFlood flood-opacity="0" result="BackgroundImageFix"/>
<feColorMatrix in="SourceAlpha" type="matrix" values="0 0 0 0 0 0 0 0 0 0 0 0 0 0 0 0 0 0 127 0" result="hardAlpha"/>
<feOffset dx="5" dy="15"/>
<feGaussianBlur stdDeviation="25"/>
<feColorMatrix type="matrix" values="0 0 0 0 0 0 0 0 0 0 0 0 0 0 0 0 0 0 0.1 0"/>
<feBlend mode="normal" in2="BackgroundImageFix" result="effect1_dropShadow_3_416"/>
<feBlend mode="normal" in="SourceGraphic" in2="effect1_dropShadow_3_416" result="shape"/>
</filter>
<filter id="filter1_d_3_416" x="103.936" y="0" width="88" height="88" filterUnits="userSpaceOnUse" color-interpolation-filters="sRGB">
<feFlood flood-opacity="0" result="BackgroundImageFix"/>
<feColorMatrix in="SourceAlpha" type="matrix" values="0 0 0 0 0 0 0 0 0 0 0 0 0 0 0 0 0 0 127 0" result="hardAlpha"/>
<feOffset dx="2" dy="8"/>
<feGaussianBlur stdDeviation="10"/>
<feColorMatrix type="matrix" values="0 0 0 0 0.419608 0 0 0 0 0.278431 0 0 0 0 0.988235 0 0 0 0.5 0"/>
<feBlend mode="normal" in2="BackgroundImageFix" result="effect1_dropShadow_3_416"/>
<feBlend mode="normal" in="SourceGraphic" in2="effect1_dropShadow_3_416" result="shape"/>
</filter>
</defs>
</svg>
