<svg width="60" height="33" viewBox="0 0 60 33" fill="none" xmlns="http://www.w3.org/2000/svg">
<path fill-rule="evenodd" clip-rule="evenodd" d="M11.3577 31.134L12.3754 32.9999L13.3909 31.1385C13.0608 31.1752 12.7307 31.2004 12.4029 31.2004C12.0591 31.2004 11.7061 31.1752 11.3577 31.134ZM8.51062 25.9236L10.8809 30.2629C10.9657 30.2789 11.0551 30.2927 11.1399 30.3042C11.5617 30.366 11.9903 30.405 12.4052 30.405C12.8201 30.405 13.2511 30.366 13.6729 30.3042C13.7371 30.295 13.8012 30.2812 13.8677 30.2721L16.2357 25.935C16.105 25.9511 15.9721 25.9602 15.8231 25.9602C14.8053 25.9602 14.2643 25.5385 13.7279 25.1144C13.3634 24.8324 12.9989 24.5459 12.4098 24.5459C11.8207 24.5459 11.4585 24.8324 11.0917 25.1144C10.5554 25.5385 10.0144 25.9602 8.99659 25.9602C8.82008 25.9602 8.66191 25.9488 8.51062 25.9236Z" fill="#111116"/>
<path fill-rule="evenodd" clip-rule="evenodd" d="M12.4037 10.189H12.4106C15.1706 10.1913 17.6783 11.3214 19.4961 13.1392C21.307 14.9524 22.4326 17.4533 22.4371 20.2086V20.2246V20.2315C22.4348 22.9892 21.3047 25.4992 19.4869 27.317C18.3523 28.4494 16.9471 29.3136 15.3792 29.8042L16.805 27.1268C17.307 26.8058 17.7723 26.4345 18.1918 26.015C19.6749 24.5342 20.5964 22.4849 20.5987 20.2315V20.2246V20.2086C20.5964 17.9576 19.6726 15.9128 18.1941 14.432C16.7133 12.9489 14.6662 12.0274 12.4106 12.0274H12.4037H12.3877C10.1413 12.0297 8.09881 12.9512 6.61799 14.432H6.61341C5.13029 15.9128 4.21108 17.9621 4.20878 20.2178V20.2246V20.2407C4.21337 22.4894 5.13029 24.5319 6.61341 26.015C6.99622 26.3978 7.418 26.7394 7.86958 27.0419L9.31832 29.7675C7.79394 29.2723 6.42085 28.4196 5.31138 27.3078C3.49817 25.4946 2.37265 22.9914 2.37036 20.2407V20.2246V20.2178C2.37265 17.4578 3.50046 14.9501 5.31826 13.1323L5.31596 13.13C7.12917 11.3168 9.63465 10.1935 12.3877 10.189" fill="#111116"/>
<path fill-rule="evenodd" clip-rule="evenodd" d="M7.68608 10.4758C10.8334 8.84598 13.9738 8.94226 17.1258 10.4758C17.1258 8.94913 17.1258 7.5004 17.1258 5.96914C14.8541 3.27569 9.76748 3.40177 7.68608 5.96914C7.68608 7.24137 7.68608 9.20128 7.68608 10.4758ZM4.80924 7.18635V6.51471V3.22526V2.72783C4.80924 2.57425 4.92386 2.44359 5.07744 2.42525L7.37891 2.13413L12.4036 0L24.8095 5.2677L17.9487 7.04652V5.85224L17.8547 5.5955C17.6278 5.32501 17.3665 5.07286 17.0868 4.84592C15.7825 3.79146 14.0312 3.28716 12.3073 3.3032C10.5812 3.32154 8.86661 3.86481 7.64252 4.89635C7.39037 5.10953 7.15655 5.34793 6.94566 5.60467L6.85626 5.85224V7.04652L5.4167 6.67288V7.18635C5.55653 7.28492 5.65052 7.44538 5.65052 7.63106C5.65052 7.83049 5.54048 8.00241 5.38232 8.0964C5.46484 8.13766 5.54507 8.19497 5.61613 8.2729L5.80181 10.0265C5.61613 10.1778 5.37544 10.2695 5.11412 10.2695C4.8528 10.2695 4.6144 10.1778 4.42184 10.0265L4.60752 8.2729C4.67858 8.19497 4.75881 8.13537 4.84133 8.0964C4.68087 8.00241 4.57543 7.83049 4.57543 7.63106C4.57313 7.44538 4.66712 7.28263 4.80924 7.18635ZM0 5.2677L4.1972 3.48429V6.35425L0 5.2677Z" fill="#FFBE48"/>
<path fill-rule="evenodd" clip-rule="evenodd" d="M16.5554 23.5348V11.1587H13.7841V23.0786C13.9697 23.1864 14.1394 23.3079 14.309 23.4317C14.6391 23.6701 14.9692 23.9107 15.5033 23.9107C15.9617 23.9107 16.2666 23.7342 16.5554 23.5348ZM11.0287 23.6953V11.7753H8.25732V24.1514C8.54386 24.3509 8.85103 24.5297 9.31178 24.5297C9.84359 24.5297 10.1737 24.289 10.5038 24.0483C10.6734 23.9268 10.8407 23.803 11.0287 23.6953Z" fill="#111116"/>
<path d="M37.1967 11.6772H27.9634V28.4126H37.1967V26.1765H30.7045V21.0548H36.4754V18.8186H30.7045V13.9134H37.1967V11.6772Z" fill="#111116"/>
<path d="M52.5715 15.1638H49.8303V22.5456C49.8303 24.9742 48.5079 26.2245 46.4881 26.2245C44.4923 26.2245 43.1698 24.9742 43.1698 22.5456V15.1638H40.4528V22.9544C40.4528 26.6574 42.8092 28.605 45.911 28.605C47.4739 28.605 48.9647 27.9558 49.8303 26.8257V28.4126H52.5715V15.1638Z" fill="#111116"/>
<path d="M59.0255 26.8257C59.0255 25.8398 58.2561 25.0704 57.2943 25.0704C56.3084 25.0704 55.539 25.8398 55.539 26.8257C55.539 27.8115 56.3084 28.581 57.2943 28.581C58.2561 28.581 59.0255 27.8115 59.0255 26.8257Z" fill="#111116"/>
</svg>
