<svg width="778" height="676" viewBox="0 0 778 676" fill="none" xmlns="http://www.w3.org/2000/svg">
<ellipse cx="389.196" cy="337.837" rx="337.132" ry="337.665" fill="url(#paint0_linear_3_391)"/>
<path d="M439.303 412.02C439.01 413.194 438.422 414.075 437.835 414.075L437.541 414.369C435.486 415.544 433.137 416.424 430.788 417.305L429.907 417.599C429.026 418.186 427.557 418.774 426.676 419.361C425.502 419.948 423.153 420.829 421.978 421.416C421.097 421.71 419.042 423.472 418.454 423.472C417.867 423.472 416.105 424.94 414.343 425.527C412.875 426.115 409.058 428.464 408.471 428.464C407.883 428.464 406.709 429.345 406.415 429.638C406.121 429.932 404.359 430.813 404.066 431.107C403.479 431.4 401.717 432.281 400.836 432.575C400.248 433.162 397.312 434.631 396.137 435.218C394.963 435.805 391.145 437.273 390.558 437.861H390.265L388.796 438.448C387.622 439.329 384.979 440.797 382.923 441.972L381.162 442.852C380.281 443.44 379.4 443.733 378.519 444.027L376.757 444.614C374.995 445.789 373.233 446.67 372.646 446.67C372.059 446.67 370.884 447.844 370.59 448.138C370.297 448.432 368.535 449.313 367.948 449.313C367.36 449.313 365.305 449.9 363.836 449.9V451.368C363.836 451.662 362.662 451.956 361.781 452.249H361.487C360.9 452.249 359.725 452.836 358.845 453.717C357.964 454.598 353.853 456.067 352.972 456.654C352.091 457.241 350.622 459.003 350.329 458.709C350.329 458.416 349.742 458.416 349.448 459.003C349.154 459.59 347.099 460.178 347.099 460.178C347.099 460.471 346.805 460.765 346.218 460.471H345.631C345.337 460.471 345.043 460.471 345.043 460.471C344.456 461.058 344.162 461.939 343.575 461.939L342.694 462.233C341.813 462.527 340.345 463.408 339.464 463.995C338.583 464.582 334.178 466.931 332.123 468.4L330.361 469.574C330.067 469.868 329.48 470.162 329.186 470.162C328.599 470.162 327.718 470.162 327.131 470.455C326.837 470.455 326.837 471.336 326.544 471.63L326.25 471.923C325.663 472.217 325.075 472.804 324.782 473.098H324.488H323.607C323.02 473.685 322.433 474.566 322.139 474.86C321.845 475.154 319.79 474.86 319.202 474.86V475.153L318.909 476.328C317.734 476.622 316.56 477.209 316.266 477.503C315.972 477.796 314.504 478.09 313.623 478.384L313.33 479.265L313.036 480.145C311.861 480.733 310.687 481.32 310.687 481.32C310.687 481.32 310.099 481.026 309.806 481.026C309.512 480.733 308.338 481.907 308.044 482.495C307.75 482.788 305.107 484.256 303.933 484.844L302.758 485.725L301.584 486.606C299.822 487.193 298.06 488.074 297.473 488.661C296.885 489.248 294.243 489.836 294.243 489.836C294.243 490.129 291.894 491.598 289.838 492.772L288.076 493.359C287.489 493.653 286.608 493.359 286.314 493.653L285.433 494.534C284.259 495.415 282.497 495.709 281.616 495.121L281.322 496.296L281.029 496.883C280.148 497.471 279.267 497.764 278.679 498.058C278.386 498.058 275.743 498.939 274.275 499.232C272.807 499.82 268.108 502.169 267.227 502.756L266.346 503.05L262.823 503.931C259.005 505.399 254.894 506.867 253.426 507.161C251.958 507.454 248.434 508.335 248.434 508.335C248.14 508.335 247.553 508.042 246.966 508.335C246.379 508.335 244.91 508.335 244.91 508.042C244.91 507.748 244.029 506.867 243.442 507.161C242.855 507.454 241.093 507.748 241.387 507.161C241.387 506.574 239.331 507.454 238.45 507.161C237.569 506.867 235.514 506.573 235.22 506.867H234.926L232.577 507.161C229.934 507.161 227.879 507.454 227.879 507.161C227.879 507.161 227.292 506.573 226.704 506.28C226.117 505.986 223.181 505.692 221.419 504.518V503.05C221.419 502.756 222.3 499.82 222.3 499.82L222.593 499.526C222.887 499.232 223.181 498.351 223.181 497.764C223.181 497.177 223.181 495.121 222.887 494.828C222.593 494.534 220.831 494.534 220.831 493.653C220.831 492.772 219.951 490.129 219.07 489.836C218.189 489.542 216.427 487.193 214.959 486.899L215.839 485.431L216.133 484.55C215.839 483.669 215.546 481.614 215.252 480.439C214.959 479.265 212.316 473.685 211.141 471.042L209.967 468.693V468.4C210.26 468.106 210.554 466.931 210.554 465.757C210.848 464.582 209.673 461.939 209.673 461.939C209.673 461.939 209.967 461.352 210.26 461.059C210.554 460.471 210.554 459.003 209.967 459.003C209.379 458.709 207.617 460.765 206.443 461.352C205.268 461.939 200.276 464.876 197.927 466.051C195.578 467.519 188.824 471.63 188.237 471.63C187.65 471.923 184.713 473.392 182.951 474.273C181.189 475.153 176.197 478.384 175.316 478.677C174.436 478.971 171.205 481.026 170.324 481.614C169.444 481.907 166.214 483.376 165.626 483.669C165.039 483.963 162.983 485.137 161.809 485.431C160.634 486.018 156.817 487.193 155.642 487.78C154.468 488.074 150.944 489.542 150.063 489.836C149.476 490.129 145.952 489.248 145.658 489.248C145.365 489.248 144.484 489.542 145.071 489.542C145.365 489.542 146.246 490.423 145.658 490.717H145.365L143.896 491.01C142.135 491.304 140.666 491.304 140.373 491.304C140.079 491.304 138.611 490.717 137.436 490.423C136.262 490.129 133.032 489.248 133.032 487.78L131.563 486.899L130.682 486.312C130.095 485.137 129.802 484.256 130.095 484.55C130.389 484.55 131.563 484.844 131.857 484.256C131.857 483.963 131.563 483.082 131.27 483.082L130.389 483.669C129.508 483.376 127.746 482.201 126.571 481.026L125.69 479.852L125.397 479.558C125.69 478.677 125.397 478.09 124.81 478.09C124.222 478.09 125.103 476.915 125.103 476.622C125.103 476.622 123.929 475.741 122.754 475.153L123.048 473.979C123.048 473.098 122.754 472.511 122.167 471.923L121.579 471.63C120.699 471.042 120.992 470.162 121.579 470.162C122.46 469.868 124.222 468.987 124.516 468.4C124.81 467.812 126.278 467.225 127.159 467.225L127.746 466.931C128.627 466.638 128.921 465.757 129.802 465.463L130.389 465.17C130.976 464.876 132.738 464.582 134.206 464.289V462.233V461.939C134.206 461.646 134.5 461.352 135.087 461.646C135.674 461.939 136.849 461.059 136.849 460.178H138.905C139.198 460.178 139.785 459.59 139.785 459.297V459.003C139.492 458.709 139.198 458.416 138.905 458.709C138.611 458.709 138.024 458.709 138.317 457.828L138.611 457.241C138.611 456.948 138.905 456.654 139.785 456.947L140.373 457.241C141.254 457.241 143.016 456.36 144.484 455.479V454.011V453.717C144.484 453.424 144.777 453.13 145.071 452.836C145.365 452.543 146.246 452.543 146.246 452.836L146.539 453.13C146.539 453.424 146.833 453.717 147.127 453.717C147.42 453.717 148.008 453.424 148.008 453.424L148.301 452.543C149.182 451.662 149.769 451.075 149.769 450.781V450.487V449.606C150.944 449.019 151.825 448.725 152.119 448.432C152.412 448.432 153.587 448.138 153.88 448.138C154.174 448.138 154.174 447.257 153.88 446.964C153.587 446.964 152.706 445.495 153.293 445.202C153.88 444.614 156.523 444.908 156.817 444.321C157.111 443.733 159.166 442.853 159.753 442.265L160.341 441.972C161.222 441.384 161.222 441.091 160.341 440.503C160.341 440.503 160.634 439.622 160.928 439.622L161.809 439.329C162.983 439.035 163.864 439.329 164.158 439.622C164.158 439.916 164.745 440.21 165.333 439.035L164.452 438.154L163.864 437.567C164.745 437.567 166.507 436.98 167.682 436.392L167.975 435.218V434.924C167.388 434.337 167.094 433.75 167.388 433.75C167.682 433.456 168.563 432.575 167.975 432.575H167.682L166.507 433.162C165.039 434.043 163.571 434.924 163.277 435.511C162.983 436.099 160.928 436.686 160.928 436.392C160.928 436.099 160.341 435.805 160.047 436.099C159.753 436.392 158.872 437.273 158.579 437.273C158.285 437.273 158.579 437.567 159.166 438.448C159.753 439.329 156.523 439.916 156.523 439.622C156.523 439.329 156.817 438.448 156.817 438.448C156.523 438.448 154.468 439.622 152.412 440.797C150.063 441.972 142.428 446.376 140.373 447.844L138.317 449.019L136.555 449.9C134.5 451.075 131.563 452.836 130.095 453.717L128.921 454.892L127.746 456.067C125.984 456.947 123.929 458.122 122.754 458.709C121.873 459.003 118.937 461.059 117.762 461.646C116.588 462.233 111.889 465.169 109.54 466.344L107.191 467.519L106.016 468.106C104.842 468.4 103.08 469.281 102.199 470.455H101.318H98.6752C96.9133 471.63 94.5641 473.098 93.0959 473.685C91.9213 474.272 88.3976 476.622 87.223 476.915C86.0484 477.209 83.6993 479.852 82.8183 480.439C81.9374 481.026 78.4137 481.614 77.8264 481.907L77.5327 482.201L76.6518 483.376C74.8899 483.963 72.8344 484.844 71.6599 485.137C70.4853 485.431 67.5488 487.487 66.6679 487.78L65.7869 488.074C65.4933 488.368 64.906 488.367 64.3187 488.661C63.1441 489.248 61.9696 490.423 60.795 490.717L59.3268 491.01C58.1522 491.598 55.803 492.478 54.3348 492.772C52.8666 493.359 48.4619 492.772 48.1683 493.066C47.8746 493.359 46.4064 493.653 45.8191 493.653C45.2318 493.359 42.8826 492.479 42.0017 492.185C41.1208 491.891 37.597 493.653 35.5415 494.24H33.486H31.7241C30.2559 493.653 28.4941 492.479 27.6131 491.598L27.9068 491.01L28.2004 489.836C28.494 488.367 28.7877 486.606 29.0813 486.018C29.0813 485.431 27.0258 484.55 26.7322 484.256C26.4385 484.256 25.5576 483.669 24.9703 483.376C24.383 483.082 24.0894 481.32 24.0894 480.733C24.0894 480.145 23.7957 478.677 23.5021 478.384L22.6211 478.677C21.7402 478.971 21.1529 478.677 21.4466 478.09L20.5656 477.503L20.8593 475.741C20.5656 474.566 19.391 471.63 18.5101 469.281L17.3355 467.225L17.0419 466.344C16.4546 465.757 15.28 464.582 14.9864 463.995C14.3991 463.408 13.2245 461.059 12.9309 460.178L12.6372 459.297C12.3436 458.709 11.7563 458.122 11.7563 457.241V456.654C11.169 455.773 10.5817 455.186 10.2881 454.892V454.598L10.5817 453.717C10.5817 452.836 10.5817 451.662 10.5817 451.075C10.5817 450.487 11.4626 448.138 12.0499 446.376L13.8118 445.202C14.1054 444.908 13.8118 444.027 14.1054 444.027L14.6927 443.733C15.5737 443.44 15.8673 443.146 15.8673 442.852C15.8673 442.852 15.8673 442.265 16.4546 442.265C17.0419 442.265 17.3355 440.503 17.6292 439.622C17.9228 439.035 18.5101 437.861 18.2165 437.273L19.0974 436.98L19.6847 436.686C19.6847 436.392 19.9783 435.805 20.272 435.805H20.5656L21.4466 435.218C20.8593 434.631 21.1529 433.75 22.3275 433.456C23.2084 433.162 24.0894 430.813 24.383 430.226C24.6766 429.638 26.4385 428.464 27.3195 428.17L26.4385 427.583C26.1449 427.583 26.4385 426.702 26.7322 426.702H28.494C28.7877 425.527 29.375 424.059 29.9623 423.178C30.5496 422.297 31.7241 419.948 32.0178 420.242C32.3114 420.242 33.486 420.242 34.0733 419.655C34.6606 419.067 36.1288 417.305 35.8352 417.012C35.5415 416.718 34.0733 416.131 34.0733 416.424C34.0733 416.718 32.8987 416.718 32.6051 416.131L32.3114 415.837L31.7241 415.544C30.8432 415.544 29.6686 415.837 29.0813 415.837C28.4941 415.837 25.8512 414.956 24.383 414.956C22.9148 414.956 19.3911 415.837 18.8038 416.131C18.2165 416.425 16.4546 414.369 17.9228 412.607L16.161 410.845L15.8673 410.552C16.161 409.671 15.8673 409.083 15.5737 409.083C15.28 409.083 14.1054 408.79 14.1054 408.79C14.1054 408.79 13.8118 408.202 13.8118 407.615C13.8118 407.321 13.8118 405.853 13.8118 405.266C13.8118 404.679 12.3436 403.798 12.3436 403.21L12.0499 402.917C11.4626 402.623 10.5817 402.623 9.99442 402.33L9.40712 402.036C8.81983 401.742 8.23254 400.568 8.23254 399.393C8.23254 398.218 5.88339 395.576 5.88339 395.576L7.64526 393.814C5.88339 392.933 3.82788 391.465 2.6533 390.584V389.409L2.35964 388.235C2.35964 386.766 2.35964 385.592 2.066 385.885C1.77235 385.885 1.18508 385.885 1.18508 385.298H1.47872C2.06601 385.005 4.12152 385.004 1.47872 384.417C1.47872 384.417 1.18508 384.417 1.18508 384.123C0.891433 382.362 0.597774 380.306 2.066 378.838C2.35964 378.544 2.94693 378.251 3.53422 377.957C4.12151 377.663 5.00245 376.782 4.70881 376.782C3.53423 375.314 5.58975 376.195 5.58975 375.901C5.8834 375.314 6.17703 374.433 6.47067 373.846C7.35161 372.965 8.52618 372.084 9.70076 371.497L10.2881 370.909C10.5817 370.322 12.0499 368.56 13.5182 367.092L15.8673 367.386H16.161C16.4546 367.092 17.0419 366.505 17.3355 365.918C17.6292 365.33 19.0974 364.743 19.3911 364.156C19.6847 363.568 22.0338 363.568 22.6211 363.275C23.2084 362.981 24.383 361.513 25.264 362.1L26.1449 361.219C25.5576 360.632 25.5576 360.338 26.1449 360.338C26.7322 360.338 28.2004 359.751 27.9068 359.164L28.2004 358.87L28.7877 357.989C29.9623 357.989 30.8432 357.695 30.8432 357.402C30.8432 357.108 32.0178 356.227 32.6051 355.934C33.1924 355.64 35.8352 355.053 36.7161 354.759C37.597 354.465 39.0653 352.997 39.6526 352.997C39.9462 352.997 41.4144 352.704 41.4144 352.116V351.823V351.529C41.7081 351.235 42.8826 351.235 44.3509 350.942V349.473C45.5254 349.18 47.581 348.592 48.4619 348.005L49.3428 347.418L49.9301 347.124C50.8111 347.124 51.9856 346.831 52.5729 346.537L53.1602 346.243C54.0411 345.95 54.6284 345.656 55.5094 345.362C56.0967 345.069 56.684 344.481 57.2712 344.188C57.5649 343.894 58.1522 343.894 58.7395 343.894C60.2077 343.601 61.6759 343.601 62.2632 342.132C62.5568 341.545 63.1441 341.251 64.0251 340.664C64.3187 340.664 64.6124 341.545 65.4933 340.664L66.0806 340.077C66.9615 339.49 68.1361 339.49 69.017 340.077L69.6043 339.196C69.898 338.902 69.898 338.609 70.1916 338.609V338.315C70.1916 338.021 71.0726 338.021 71.6599 338.021C72.2471 338.021 74.009 337.14 74.5963 337.14C75.1836 337.14 76.3582 336.259 76.6518 336.259L77.2391 335.966C77.5327 335.966 77.8264 335.966 77.8264 335.672L79.2946 333.617C82.2311 332.442 84.8739 331.267 85.4612 331.267C85.7548 330.974 87.5167 330.68 88.3976 330.387C89.2785 330.093 91.6277 328.625 91.9213 328.918C92.215 329.212 93.9768 329.506 94.5641 328.918L95.4451 328.625L96.326 328.331C97.5006 328.331 98.3815 328.331 98.3815 328.037C98.0879 327.744 98.3815 326.863 99.5561 326.863L100.143 326.569L100.731 326.276C101.024 326.569 102.493 326.275 103.373 325.688L104.254 325.101L104.548 324.807C105.135 324.807 105.429 325.101 105.135 325.395L104.842 325.688C104.842 325.688 105.135 325.982 105.429 325.982H105.723C106.016 325.982 106.604 325.101 106.897 324.22L108.072 323.926C110.127 323.339 112.476 323.339 114.238 321.871C114.238 321.871 114.826 321.871 115.119 321.871H116C116.881 321.871 118.056 321.871 118.643 321.577C118.937 321.284 120.992 320.696 121.873 320.403C122.754 320.109 125.397 319.228 125.69 319.228C125.984 319.522 127.159 320.109 127.159 319.815C127.159 319.522 128.333 319.228 129.214 319.228C130.095 319.228 133.325 318.347 133.913 318.053C134.793 317.76 136.849 318.934 137.143 318.934C137.436 318.934 139.198 319.815 140.666 320.696C142.135 321.577 147.714 320.109 149.476 319.815L151.238 320.109L152.706 320.403C154.468 320.109 156.23 319.815 156.817 319.522C157.404 319.522 158.872 320.109 159.46 319.815C160.047 319.522 161.222 319.522 161.222 320.109C161.222 320.696 163.277 320.109 163.571 319.815H163.864L165.039 320.403C166.214 321.284 167.682 322.458 168.269 323.045C168.856 323.633 170.912 324.514 170.618 324.514C170.325 324.807 170.618 325.688 171.205 326.569L171.793 327.45L172.967 329.212C175.023 330.68 176.197 331.855 175.904 332.442C175.61 332.736 174.729 333.91 175.316 334.498L175.904 334.791H176.197C176.785 334.204 177.666 334.204 178.253 334.498L178.84 335.085C179.134 335.378 178.84 335.672 178.84 335.966C178.84 336.553 176.785 335.672 177.959 336.847C178.547 337.728 177.959 338.021 177.666 338.315L177.372 338.902C177.078 339.783 177.372 340.664 177.959 340.958C178.547 341.251 178.84 343.307 178.84 343.601C179.134 343.894 180.602 345.95 182.07 348.005L181.777 350.061C181.483 351.235 181.777 352.41 183.245 353.291L183.832 353.584C184.126 354.172 184.419 355.053 184.713 355.346C185.007 355.934 187.062 356.521 187.943 356.815V357.108C188.237 358.283 188.824 358.283 189.705 357.695C189.705 357.695 190.292 357.695 190.292 357.989L190.586 358.283C190.88 358.576 191.173 359.164 190.88 359.164C190.586 359.164 189.999 360.045 190.292 360.632L190.586 360.926L190.88 361.513C191.173 362.1 191.173 362.687 191.467 362.981C191.467 363.275 190.586 365.037 189.705 367.092L187.65 368.56L186.769 369.148C186.181 370.616 185.594 372.084 185.3 372.378C185.007 372.965 182.658 374.433 182.07 375.608L181.189 375.901C179.428 376.489 181.189 376.782 180.896 377.076C180.308 377.37 180.015 377.957 179.428 378.251L178.253 379.132C176.785 380.013 175.316 381.187 175.023 381.774C174.729 382.362 172.674 383.536 172.967 384.123C173.261 384.711 170.618 385.592 169.444 386.179L168.563 386.766L167.682 387.647C166.213 388.822 165.92 389.409 166.507 389.409C167.388 389.409 170.325 387.941 172.674 386.766L175.023 386.179L176.197 385.885C176.197 385.004 176.197 383.83 176.197 383.83C176.491 383.83 176.785 383.83 177.078 383.83L177.372 384.123C177.666 384.711 178.253 384.711 178.84 384.123L179.134 383.83C179.427 383.536 179.721 383.243 179.721 383.243L181.777 383.536C182.658 382.362 183.832 380.893 184.419 380.306C184.713 379.719 187.943 379.425 188.824 378.838L189.999 378.544C190.586 378.544 191.173 378.251 191.467 377.663C191.173 377.076 191.173 376.782 191.467 376.782C191.761 376.782 193.229 376.489 193.522 376.195C193.816 375.901 194.697 374.727 194.991 374.14L196.165 374.433C196.753 374.433 197.927 373.552 198.514 372.965L199.102 372.378C199.689 372.084 200.57 371.497 200.57 371.497C200.864 371.497 201.451 371.497 202.038 371.203C202.625 371.203 204.681 370.029 205.268 369.441L205.856 368.854C206.443 367.973 207.03 370.029 207.324 368.854C207.617 367.386 208.498 368.854 208.792 368.56L209.379 367.973C209.967 368.267 210.26 368.267 210.26 367.679L210.554 367.386L210.848 367.092C211.435 367.092 212.609 366.798 213.49 366.798C214.371 366.798 216.72 365.037 217.308 364.449L217.895 363.862C218.482 364.156 219.07 364.156 219.07 363.862C219.07 363.568 219.657 362.394 219.951 362.687C220.244 362.981 221.125 363.568 221.712 363.275C222.3 362.981 223.181 362.394 223.474 361.513H224.649H225.53C226.411 361.219 227.585 360.338 227.879 359.751L228.76 359.457C229.347 359.457 229.347 358.87 229.934 359.457L230.228 359.751C230.815 359.751 231.696 359.164 232.284 358.576L233.458 358.283L234.339 357.989C235.22 357.108 237.276 356.227 238.45 355.64C239.625 355.053 244.323 354.172 245.791 353.878L246.672 352.997L247.847 352.116C249.609 351.823 251.077 352.116 251.37 352.704C251.664 353.291 252.545 354.759 252.545 354.759C252.545 354.759 252.839 354.465 252.839 354.172C252.839 353.878 252.251 352.41 252.251 351.823L254.013 350.942C255.482 350.061 257.831 350.648 258.418 348.886C258.418 348.886 259.005 348.886 259.299 348.886C260.473 349.767 260.473 350.354 258.712 351.235C258.712 351.235 260.18 351.235 261.942 350.942L262.823 350.648C263.704 350.354 264.585 350.354 265.465 350.354L266.934 350.648C267.227 349.767 267.521 349.18 267.815 349.473C268.108 349.767 268.989 350.648 268.989 350.354C268.989 350.061 269.283 348.592 269.283 347.124L271.632 345.362L271.926 345.069C272.219 344.775 272.807 345.069 273.1 345.656C273.394 346.243 275.156 347.418 276.33 346.831C277.505 346.243 281.029 345.95 281.029 345.362C281.029 344.775 280.735 343.894 280.441 344.188C280.148 344.775 278.092 344.775 278.092 344.481V344.188C278.092 343.894 277.505 342.72 279.267 343.601L279.56 343.894C280.735 343.013 281.91 342.72 282.203 343.307V343.601V343.894C282.203 344.481 282.497 344.775 282.79 344.775C283.084 344.775 284.259 344.188 284.552 343.601C284.846 343.013 286.021 340.958 286.608 341.545C287.195 342.132 288.957 343.013 289.544 342.426L290.132 342.132L291.013 341.839C291.893 341.545 293.362 341.251 294.243 341.251H295.124C296.298 341.545 297.179 341.251 298.06 340.664C298.354 340.37 298.647 340.077 298.941 340.077L301.29 338.609L301.877 338.315C302.465 338.021 303.933 337.728 305.401 337.434C306.869 337.14 310.687 335.966 311.861 335.966C313.036 335.966 316.266 335.672 316.853 335.966C317.441 335.966 317.441 337.434 316.56 337.728C315.679 338.021 315.091 340.077 315.679 339.783C315.972 339.489 317.734 339.49 318.615 340.077L319.496 340.664L320.377 341.251C321.552 341.545 323.02 342.426 323.901 343.013L322.433 343.894L322.139 344.188C322.139 345.362 322.726 345.95 323.02 345.362C323.313 344.775 324.194 344.188 324.194 345.069C324.194 345.95 323.02 347.124 323.901 347.124C324.488 347.124 326.837 346.831 327.718 346.831C328.599 346.537 329.186 344.775 329.48 345.069C329.774 345.362 330.948 345.362 331.536 345.069C332.123 344.481 334.472 343.601 335.059 343.601C335.647 343.601 336.527 342.426 337.115 342.72H337.702H337.996C338.289 342.72 338.583 342.426 338.583 342.132C338.583 341.839 339.17 341.251 340.051 340.958C340.932 340.37 343.869 339.49 344.456 339.196C345.043 338.902 345.337 337.434 345.631 337.434C345.631 337.434 346.218 337.14 346.805 337.434L347.099 337.728H347.392C347.392 338.021 348.273 337.434 348.861 336.259L349.448 335.378C349.742 335.085 350.035 335.085 350.329 335.085L351.797 335.378C352.972 334.498 354.146 333.617 354.733 333.323H355.321H356.202C357.083 333.029 357.964 332.736 358.257 332.442C358.551 332.148 358.551 331.267 359.138 330.974L359.725 330.68C360.606 330.387 361.487 330.387 362.368 330.387C362.956 330.387 361.781 328.625 363.543 329.506C363.543 329.506 364.424 328.918 365.011 328.625C365.305 328.331 365.598 328.037 365.892 328.037C366.479 327.744 367.36 327.45 368.241 327.156L368.828 326.863C369.709 326.863 370.884 326.569 371.471 325.982L372.059 325.395L372.646 324.807C373.233 324.22 374.114 323.926 374.408 323.926C374.701 323.926 375.582 323.633 375.289 323.045L376.17 322.458C377.051 321.871 377.344 322.458 378.225 322.752H378.519C379.106 322.458 380.281 321.577 381.162 320.99L382.042 321.871C382.336 322.164 382.923 321.871 382.336 320.99L382.042 320.696C382.042 320.403 383.217 319.815 384.392 319.522H385.566C385.86 319.522 385.86 318.347 387.034 318.347H387.622C388.209 318.347 389.677 318.347 390.852 318.053C392.026 317.76 394.082 315.117 394.963 314.823C395.844 314.53 399.074 313.942 400.248 313.355C401.129 312.768 402.598 312.181 402.891 312.474C403.185 312.768 404.066 313.061 404.359 312.768V312.474V312.181C404.066 311.887 404.066 311.3 404.653 311.006C405.24 310.712 406.709 310.419 408.177 310.419L409.351 310.125H409.939C410.526 309.831 412.875 310.712 415.224 311.887L417.28 313.061L417.574 313.355C417.867 313.649 418.748 314.236 419.629 314.53C420.51 314.823 422.859 314.236 424.034 313.649L425.208 314.236C426.676 314.823 427.851 315.411 429.613 315.117C429.907 315.117 433.43 316.879 434.018 317.172C434.311 317.466 435.192 317.173 435.486 317.466C436.073 317.76 436.367 318.347 436.954 318.347C438.129 318.641 437.835 319.228 437.835 319.815V320.109C437.541 320.403 436.954 321.284 436.66 321.871C436.367 322.458 438.422 324.22 438.129 324.514C437.835 324.807 437.248 325.982 437.541 326.863C437.835 327.744 440.184 328.918 439.891 329.506C439.597 330.093 439.01 331.561 439.303 331.561C439.597 331.855 439.891 332.442 439.891 332.736C439.891 333.029 439.303 333.91 439.303 334.204C439.01 334.498 438.129 334.498 437.835 334.791V335.085L438.422 335.966C439.303 336.847 439.891 337.434 440.184 337.14C440.184 337.14 441.065 336.847 441.065 337.14C441.065 337.434 440.771 338.609 440.771 338.609C440.771 338.609 440.478 339.489 440.771 339.783C441.065 340.37 441.359 343.013 441.652 344.188L442.533 345.362L443.121 345.95C442.827 347.124 443.708 348.299 444.882 348.592L445.763 348.886H446.057C446.938 349.473 447.232 350.354 446.938 350.648C446.644 350.942 446.351 351.529 446.351 352.41C446.351 352.997 444.882 355.346 444.589 356.815H442.533H441.946C441.359 357.402 441.652 358.283 442.533 358.87L443.121 359.164C443.414 359.457 443.414 359.164 443.708 358.283C444.002 357.989 444.295 357.402 444.589 357.402C446.351 357.402 447.232 355.053 449.581 356.521L453.398 354.465H453.692C453.985 354.172 454.573 354.172 455.16 353.878C455.747 353.878 457.509 352.704 457.803 352.41C458.096 352.116 460.739 352.116 461.62 351.235L462.501 350.648L466.025 350.061L466.612 350.648C467.199 350.354 468.374 349.473 469.255 348.886C470.136 348.299 472.779 345.95 473.072 345.069L474.541 345.95C475.422 346.537 476.89 345.656 477.771 346.537C478.358 346.243 479.533 345.656 480.414 345.069L481.588 344.775C485.112 343.601 485.993 343.013 487.461 343.894L488.929 344.481C490.691 344.481 491.866 343.894 491.572 343.601C491.278 343.307 491.866 341.839 493.04 341.251C494.215 340.664 498.326 339.196 498.619 339.196L499.207 339.49C499.794 339.783 500.381 339.783 500.675 339.196C500.675 338.315 501.556 338.315 502.143 338.609L504.199 339.49C506.254 339.196 508.016 338.315 508.016 337.728C508.016 337.14 510.953 336.553 512.714 336.259L514.183 335.672C515.064 335.378 515.945 335.085 517.119 335.085L518 334.791C518.587 334.204 519.468 333.91 519.762 334.204C520.056 334.498 520.936 335.378 521.23 335.378L522.111 334.791C522.992 334.204 524.167 333.91 525.048 334.498L525.635 333.323C525.635 333.029 526.809 333.323 527.397 333.323H527.69C527.984 333.323 528.865 333.029 529.746 332.736C530.627 332.442 533.563 332.442 535.031 332.736L536.206 331.561C536.5 331.267 536.793 330.974 537.381 331.561L537.674 331.855C538.262 331.855 539.143 331.561 539.73 331.267C540.317 330.974 543.254 330.974 544.134 330.387L544.428 330.68L545.603 331.561C546.484 330.974 547.952 330.093 549.126 329.506L550.007 329.212C550.007 329.212 550.301 329.212 550.595 329.506C552.357 330.387 552.65 330.387 553.237 329.799L554.118 328.918C554.999 329.212 556.174 329.799 556.468 329.799C556.761 329.799 557.936 328.625 558.229 328.331H558.523C559.698 328.331 559.11 329.212 559.11 329.506V329.799C559.11 330.093 560.579 329.506 562.34 328.625L563.809 328.037C565.57 327.45 564.983 327.744 565.864 329.212L566.745 330.68C565.864 330.68 565.571 330.974 566.158 331.561H566.745C567.626 331.561 568.507 330.387 568.801 330.387C569.682 330.974 570.562 331.267 571.15 330.68C572.031 330.093 572.031 330.68 572.618 330.974H572.912C573.205 330.68 573.205 330.093 572.618 329.799L573.499 329.506C573.793 329.506 574.38 329.799 574.38 330.093C574.674 330.68 574.673 330.974 575.261 330.387C575.261 329.799 576.435 329.799 577.904 330.093C579.372 330.386 582.015 333.029 581.427 333.323C580.84 333.617 580.546 334.791 581.134 335.378C581.721 335.966 583.483 337.14 584.07 336.847C584.657 336.553 586.419 335.966 586.419 335.672C586.419 335.378 587.3 334.791 588.475 334.791L587.3 335.966L586.713 336.553C587.594 337.434 588.768 338.315 589.062 338.609C589.356 338.902 588.181 340.077 587.888 340.077C587.594 339.783 586.713 339.196 586.713 339.49C586.713 339.783 586.713 340.077 586.713 340.664C586.713 341.251 589.356 342.132 590.53 342.72L589.356 343.894L589.062 344.188C589.649 345.069 590.53 346.243 591.118 346.537C591.705 346.831 591.999 348.005 592.292 348.299C592.586 348.593 591.705 349.767 591.411 350.061C591.118 350.354 591.411 351.235 591.411 350.942L591.705 350.648L591.999 350.354C592.292 350.061 593.173 350.061 593.467 350.354C593.76 350.648 594.054 352.116 593.76 352.704C593.173 353.291 591.118 353.584 590.237 353.584C589.356 353.584 587.007 353.878 587.007 354.465C587.007 355.053 586.713 356.227 586.126 355.934L586.419 355.053C586.419 353.878 586.126 353.291 585.832 353.291C585.245 353.291 584.07 353.291 584.07 353.584C584.07 353.584 584.364 354.465 584.657 354.759C584.951 355.346 582.602 356.227 582.896 355.934V355.64C582.896 355.053 583.189 354.172 582.896 353.878C582.015 353.291 582.015 354.172 581.427 354.759C580.84 355.346 579.959 355.64 579.078 356.227C578.785 356.227 578.197 356.227 577.61 356.227H577.023C576.435 356.227 574.967 356.521 573.499 357.108L572.324 357.695C571.737 357.989 570.269 358.283 571.737 359.164C571.443 359.457 570.269 359.751 569.388 360.045C568.213 360.338 566.158 362.687 565.864 362.687C565.571 362.687 564.396 362.394 562.928 362.1L562.34 363.275L561.753 364.449C560.872 364.156 559.698 364.449 559.698 364.743C559.404 365.037 558.817 365.918 558.523 366.211H558.229C555.88 365.918 554.118 366.798 552.944 368.267L552.357 369.148C551.476 369.735 550.595 369.735 550.301 369.441C550.301 369.148 548.539 368.854 546.777 369.441L545.309 370.029H545.015C544.722 370.322 544.134 371.203 543.547 372.084C542.96 372.965 542.079 374.727 542.373 374.14C542.373 373.552 541.785 372.084 541.198 372.378C540.611 372.671 539.436 374.727 539.142 374.14L538.849 373.846C538.262 373.552 537.674 373.846 537.674 374.433C537.674 374.727 537.087 375.021 536.5 375.021H534.151C532.682 376.489 530.039 378.251 528.278 378.838L526.516 379.132V379.719C527.397 380.306 527.103 380.6 526.516 381.187C526.222 381.481 525.928 381.774 525.635 381.774H525.341C524.754 381.774 524.46 381.187 524.754 380.6H525.928C525.635 380.013 525.341 379.425 524.754 379.719C524.167 380.012 522.992 380.893 522.698 380.893C522.405 381.187 521.23 380.6 520.936 380.893C520.643 380.893 518.294 382.362 516.532 383.243L514.77 384.123L514.183 384.417C513.595 384.124 512.714 384.417 512.421 384.417C512.127 384.711 512.127 385.004 512.714 385.004C513.302 385.004 515.357 385.004 515.651 385.592C515.945 385.885 516.238 387.06 515.651 387.354L515.357 387.647L515.064 387.941C514.77 388.235 514.183 388.235 514.183 387.941C514.183 387.647 513.008 387.647 512.127 388.528L511.54 389.409C511.54 389.703 511.54 389.996 511.833 390.29V390.584C511.833 390.877 511.54 391.171 511.246 391.171H510.953C510.365 390.877 509.484 390.584 509.191 390.584H508.897C508.603 390.584 507.723 390.584 507.135 390.29C506.548 390.29 505.667 388.822 504.492 388.528L499.5 387.647L497.739 388.235C496.564 389.703 495.389 390.29 494.802 389.409H494.508C493.921 389.409 493.334 389.703 493.04 390.29L492.453 390.877C492.159 391.758 492.159 392.933 492.159 393.227H493.04C493.334 393.814 493.334 394.401 493.04 394.695C493.04 394.988 492.159 395.869 491.572 395.282C490.985 394.695 490.691 393.814 490.104 393.227H489.223H488.929C488.929 392.933 488.636 392.639 488.636 392.346C488.636 392.346 488.342 392.052 487.755 392.052V393.814C485.993 393.814 484.818 394.401 485.112 394.988C485.405 395.576 487.461 395.869 487.755 396.163C487.755 396.75 487.755 398.219 487.461 398.219C486.874 398.219 485.405 396.163 484.525 395.282L483.056 396.75L482.763 397.044C482.175 397.338 481.882 397.338 482.175 397.631C482.469 397.631 482.469 398.218 481.882 398.806C481.001 399.099 482.175 401.155 481.588 401.449H481.294L480.414 401.155C479.533 400.568 478.652 400.274 478.945 400.861C478.945 401.155 478.945 402.33 478.652 402.33C478.358 402.33 477.183 402.917 477.477 403.504C477.771 403.798 478.064 405.266 477.183 405.266L476.89 404.972L476.302 404.679C476.302 404.091 476.009 403.21 476.009 402.917C476.009 402.623 476.302 401.155 476.89 400.568C477.771 399.98 477.183 397.631 476.596 397.925C476.009 398.218 474.834 399.393 474.834 399.98C474.834 400.568 474.834 401.742 474.247 401.449C473.66 401.155 470.723 402.917 470.136 402.917L469.549 402.623L468.961 402.33C468.374 402.33 467.493 402.33 466.906 402.33C466.612 402.623 466.319 404.091 466.025 404.679C464.263 404.679 464.85 405.853 464.557 406.441L464.263 406.734C463.676 407.028 463.088 407.028 463.088 406.734C463.088 406.441 462.208 406.147 461.914 406.441C461.62 406.734 460.152 407.909 459.565 407.615C458.977 407.615 459.271 408.79 459.565 409.083C459.858 409.377 459.858 409.964 459.858 410.258C459.858 410.552 461.914 411.139 462.208 411.433C462.501 411.726 462.795 412.901 461.914 413.488L460.739 412.313L460.446 411.726C459.565 411.433 458.684 411.139 458.684 411.139C458.684 411.139 457.216 411.433 456.335 411.726L456.628 412.901V413.782C456.041 413.488 454.866 412.901 454.279 412.901V413.782C454.279 414.075 453.985 414.663 453.692 414.956C453.105 414.663 452.811 414.369 452.517 414.075C452.517 413.782 452.811 412.607 453.398 412.02L453.692 411.726H454.279C454.573 411.433 454.866 411.139 454.866 410.845C454.866 410.552 454.279 410.258 453.985 410.258H453.105C452.224 410.258 451.636 410.552 451.636 411.139C451.93 411.433 450.462 412.02 449.874 412.02H449.287V411.726L448.7 410.552C447.232 410.258 445.763 409.964 445.47 409.964V410.258C445.47 410.552 445.47 410.845 445.763 411.139L447.525 412.607C448.113 413.782 448.993 414.956 449.287 415.25H449.581C449.874 415.25 450.168 414.956 450.168 414.663L450.462 414.369C450.462 413.488 451.636 414.663 452.811 416.718L454.573 417.893C455.16 418.186 455.747 418.186 456.041 417.599V417.305C456.335 417.012 456.628 416.718 457.216 416.718C457.509 416.718 458.684 416.718 458.977 416.131C459.271 415.837 460.152 415.25 460.739 416.131C461.327 416.718 462.795 418.48 461.914 418.48C461.327 418.48 459.858 419.948 458.684 420.242L457.803 420.829C457.509 420.829 457.216 420.242 457.509 420.242C457.509 419.948 457.803 419.067 457.216 419.067C456.922 419.067 456.335 419.948 456.335 420.829L456.041 421.416L455.747 422.004C456.041 422.004 456.041 422.591 455.747 422.885C455.454 423.178 453.692 423.766 452.811 423.178H452.224C450.755 423.472 451.343 422.004 450.462 421.71C449.581 421.416 449.287 421.416 449.874 420.829C450.755 420.242 451.049 419.361 452.517 420.242L453.105 420.536C453.692 419.361 453.105 418.48 451.93 418.48C450.755 418.48 448.406 419.655 447.232 420.242L446.938 421.123L446.644 421.71C447.232 422.591 447.819 423.472 448.113 424.059C448.406 424.353 447.232 425.528 445.763 424.94L444.589 424.647C444.295 423.178 444.002 422.004 444.295 422.004L444.002 422.591C443.414 423.472 443.414 423.472 444.589 423.766C445.176 423.766 445.47 424.353 446.057 424.059H446.351C446.351 423.472 446.351 422.591 446.057 421.71C445.763 421.123 446.057 419.361 445.47 419.361H445.176H444.589C444.295 420.535 444.295 422.297 444.002 422.885C444.002 423.766 444.002 424.94 444.882 425.234L445.763 425.527C446.644 425.821 446.644 426.115 445.47 426.702H445.176C445.176 426.996 444.882 427.289 444.882 427.877C444.882 428.17 444.295 429.051 443.708 429.051C443.414 429.051 441.946 429.345 441.359 430.226H440.478H439.597C439.303 430.813 438.716 431.4 438.129 431.694C437.541 431.988 435.78 432.575 435.192 432.575C434.605 432.575 434.018 431.4 434.311 431.107C434.605 430.813 435.192 430.226 434.605 429.932L434.311 429.638C433.724 429.345 433.43 428.758 434.018 428.464L434.605 428.17C435.486 428.17 436.66 428.17 437.248 428.17C437.835 428.464 439.303 426.408 439.597 426.115C439.891 425.821 441.359 425.528 442.24 424.94L441.359 424.353C441.065 424.059 440.771 424.059 440.478 423.766H440.184C439.891 423.766 439.597 423.472 439.891 423.178C440.184 422.885 441.065 422.004 440.771 422.004C440.478 422.004 439.303 422.004 439.01 422.591C438.422 423.178 437.541 425.821 436.954 426.115C436.367 426.115 434.311 426.408 434.311 426.115C434.605 425.821 434.899 424.647 434.605 424.353H434.311C434.018 424.353 433.43 424.353 433.43 424.647L432.843 425.234C432.549 426.115 431.375 426.408 430.494 426.408H429.613C429.319 426.408 429.026 426.996 429.026 427.289V427.583C429.319 427.877 429.026 428.17 428.438 428.17L428.145 427.877L427.557 427.583C426.97 426.996 426.97 426.702 427.264 426.408C427.557 426.115 428.145 425.234 428.438 424.353L428.145 423.766L427.851 423.178C428.145 422.591 428.438 422.297 428.438 422.004C428.438 422.004 429.026 421.123 429.613 420.536C430.2 419.948 433.43 418.186 434.605 417.599C435.486 417.012 438.422 415.544 438.422 415.544V415.837V416.424C438.129 417.012 438.129 417.305 438.422 417.012C438.716 416.718 439.891 416.425 440.184 416.131C440.478 416.131 441.652 415.837 442.533 416.131V414.956V414.075C443.414 412.901 444.295 412.02 444.589 411.726C444.882 411.433 444.882 411.433 444.589 411.433C444.295 411.433 443.121 411.433 442.533 411.726C441.946 411.726 441.359 413.194 440.771 413.488L439.303 412.02ZM434.311 422.885C434.018 422.885 432.843 423.178 431.962 423.178H431.375H430.2C429.613 423.766 429.613 424.647 429.613 424.94C429.907 425.234 430.788 425.527 431.375 425.234C431.962 424.94 432.843 421.71 433.137 422.591C433.137 422.885 434.605 422.885 434.311 422.885ZM172.674 428.17C169.444 429.932 169.444 430.519 172.38 431.694C172.38 430.519 172.674 429.638 172.674 428.17Z" fill="#FFBE48"/>
<path d="M387.037 485.138C386.744 485.138 385.863 484.844 384.982 484.551C384.395 484.257 382.045 483.376 381.458 483.67C380.871 483.67 379.696 484.844 379.403 484.844C379.109 484.844 376.466 485.725 376.173 486.313H376.76C377.053 486.313 377.347 485.725 377.641 485.432L378.228 485.138C378.815 484.844 378.815 484.257 378.522 483.963C378.228 483.67 376.466 484.551 376.173 484.844C375.879 485.138 377.053 486.019 377.347 486.313C377.641 486.9 377.934 487.487 376.173 487.194C374.411 486.9 371.474 484.551 371.181 484.257C370.887 483.963 370.006 483.67 369.419 483.67L369.712 482.789L370.006 481.908C370.3 481.027 370.3 480.146 369.712 480.146H369.125H367.657C367.07 479.265 365.895 476.622 365.014 474.273L364.133 472.218V471.924C363.839 471.63 364.133 471.043 365.014 470.749C365.601 470.162 367.07 468.988 366.776 468.694C366.482 468.4 367.95 467.519 368.538 467.226L369.125 466.932C369.125 466.932 369.419 466.345 369.419 465.757C369.419 465.17 371.181 463.408 371.474 463.115C371.768 462.527 372.649 461.059 372.649 460.766V460.472V459.885C373.53 459.885 374.998 459.885 376.466 459.591V458.71V458.416C375.585 457.829 375.292 457.535 375.585 457.242C376.173 456.948 377.347 456.654 377.641 456.654C377.934 456.654 377.934 455.774 378.228 455.48H378.522H379.109C379.99 455.48 380.284 455.186 379.99 454.599C379.696 454.012 378.815 452.543 379.109 452.837C379.696 453.131 381.458 453.131 381.752 452.543L382.045 451.956C382.339 451.663 382.339 451.075 382.633 451.075L383.22 450.782C383.807 450.488 384.395 450.194 384.101 449.901C384.101 449.607 384.101 449.02 384.688 449.313C385.569 449.607 386.744 450.782 386.156 451.075L385.863 451.369V451.662C385.276 451.956 384.101 452.837 383.22 453.718L383.514 454.599C383.514 454.893 383.807 455.186 384.101 455.186H384.395C384.688 454.893 385.863 454.599 386.744 454.305V453.131L386.45 451.662C384.982 451.956 383.807 451.956 383.807 451.956C383.514 451.956 385.569 452.25 386.45 452.25C387.331 452.25 388.506 453.424 388.799 453.718C389.093 453.718 389.68 454.893 389.387 456.067H387.625C387.625 456.654 387.037 457.535 386.744 457.829C386.157 458.123 383.807 458.416 383.514 458.416C382.926 458.416 381.752 459.004 381.752 459.004C381.752 459.004 381.458 458.71 381.458 458.416C381.458 458.123 380.577 457.242 379.403 457.242L379.109 457.535C378.522 458.416 379.696 458.416 380.284 458.71H380.577C380.577 459.004 380.284 459.591 379.696 459.885H379.403L377.641 459.297C377.347 460.472 377.053 461.353 377.347 461.353C377.641 461.353 378.522 461.353 378.815 461.059C379.109 461.059 380.871 460.765 382.045 460.472L383.514 461.94C384.395 462.821 384.982 463.408 384.395 464.289L384.101 464.583C384.101 465.17 384.688 464.877 385.863 464.289L386.156 463.702C386.45 463.408 385.569 462.527 385.569 461.94L385.276 461.353C384.982 460.766 385.276 460.472 385.863 460.472C386.45 460.765 387.625 461.353 387.625 461.646C387.625 461.94 387.625 462.527 387.918 462.527C388.506 462.527 388.799 461.353 389.093 460.178C389.387 459.297 388.799 457.242 389.68 457.535C390.561 457.829 393.204 458.416 392.617 457.829C392.029 457.535 392.323 456.361 393.498 455.774L394.085 455.186L394.672 454.599C395.259 454.012 395.259 453.424 394.379 453.424C393.498 453.424 390.855 453.131 390.268 453.131C389.68 452.837 388.506 451.662 388.799 451.662C389.093 451.662 389.387 450.782 389.093 450.194C388.799 449.607 386.744 448.726 387.037 448.432C387.331 448.139 388.506 447.845 388.799 448.139L389.093 448.432C389.387 448.726 389.68 449.02 389.974 449.02C390.268 449.02 390.855 448.726 390.855 448.726V447.845C390.855 446.964 390.855 446.083 391.148 446.083C391.148 446.083 391.442 446.083 391.442 446.377L391.736 446.671C392.323 446.377 392.91 446.083 393.498 445.79L394.379 445.202C393.791 444.615 393.498 444.028 393.498 443.734C393.791 443.734 394.085 443.734 394.379 443.734C394.672 444.028 394.672 444.321 394.966 444.615L395.259 445.202C395.847 444.909 396.728 444.321 397.315 443.734C397.609 443.147 398.783 441.679 398.49 441.091V440.504L399.37 440.21L400.545 441.385C400.839 440.504 401.426 439.329 401.72 438.742C402.013 438.155 402.894 436.98 403.482 437.274C404.069 437.274 406.124 437.568 406.124 436.98C406.124 436.687 406.712 435.512 406.712 435.806C407.005 436.099 407.886 436.687 408.473 436.687L408.767 436.393L409.648 434.925C411.116 435.218 412.291 435.806 412.585 435.806C412.585 436.099 413.465 436.687 414.053 436.393C414.64 436.099 416.402 434.925 416.696 434.631L416.402 434.337C415.815 434.337 415.227 434.337 414.934 434.337C414.64 434.631 413.465 434.631 413.172 433.75L412.585 433.457L411.997 433.163C410.529 433.163 409.942 433.163 411.116 432.869C412.291 432.576 412.585 430.814 412.878 430.814C413.172 430.814 413.759 430.814 413.465 431.107C413.465 431.107 413.465 431.695 413.759 431.988C414.053 432.282 415.521 433.163 415.815 433.457L416.402 432.869L416.696 432.576C416.696 432.282 416.696 431.695 416.402 431.401C416.402 431.107 416.989 430.226 417.283 429.933C417.576 429.639 417.283 427.877 417.577 427.877C417.87 427.877 419.338 428.171 419.045 428.465C418.751 429.052 418.457 429.933 418.751 429.933C419.045 429.933 419.338 429.639 419.926 429.052C420.219 428.465 422.275 426.996 423.156 426.996L424.037 427.29C424.624 427.584 425.211 427.877 425.799 427.29V426.703L425.505 426.409C424.918 426.115 424.33 425.822 424.037 425.822C423.743 425.822 423.449 425.235 424.037 424.941L424.33 424.647V424.354C424.037 423.766 424.33 423.473 425.505 423.473C426.68 423.473 428.735 421.711 429.91 422.298L428.441 423.179C428.148 423.473 427.56 423.473 427.267 423.473L426.679 423.179C426.092 423.473 425.211 424.354 424.918 424.941L426.092 425.822L427.56 426.996C427.267 428.171 425.799 428.171 424.037 427.584L423.156 429.639H422.568L421.1 429.933C421.981 430.814 422.862 431.107 423.449 430.814C424.037 430.52 425.505 429.639 426.092 429.933C426.679 430.226 427.267 430.814 426.386 431.107C425.505 431.401 424.624 434.337 424.33 434.925V435.512C424.33 435.806 424.624 436.393 424.918 436.687H425.211C425.799 436.393 426.386 435.806 426.973 435.218L427.854 434.925C428.148 434.631 428.735 434.337 428.735 434.044L428.441 432.576C428.148 431.107 428.441 429.639 428.441 429.639C428.735 429.639 429.322 429.933 429.616 430.226C429.91 430.52 430.497 431.401 430.497 431.695C430.497 431.988 431.378 432.282 431.965 431.988L432.259 431.695L432.846 430.52C433.433 429.052 434.608 428.171 435.195 428.758C435.783 429.346 435.489 431.401 435.195 431.401C434.902 431.401 432.259 433.457 433.14 433.457H433.727H434.608C435.489 433.163 436.076 433.456 435.782 434.044C435.489 434.631 434.608 435.806 434.608 435.512C434.608 435.218 433.727 434.925 432.846 435.218L432.259 435.512C432.259 435.512 432.552 436.099 432.552 436.687V436.98C432.846 437.568 432.259 437.861 431.671 437.568C431.084 437.274 429.322 437.861 429.029 438.155C428.735 438.449 426.679 439.623 425.799 439.329C424.918 439.329 422.275 439.917 421.981 439.329C421.688 439.036 421.1 437.568 421.688 437.568H421.981C422.275 437.568 422.862 437.274 423.156 436.98C422.862 436.687 422.275 436.099 421.688 435.806C421.1 435.512 420.219 434.631 420.219 434.337C420.219 434.044 420.219 433.163 419.632 433.457C419.045 433.75 418.164 435.806 418.457 436.687V437.274V437.568C418.457 437.861 418.164 438.448 417.577 438.448L417.283 438.155C416.989 437.861 416.696 437.274 416.696 436.98C416.696 436.687 416.108 436.099 415.815 436.393C415.521 436.393 415.227 436.98 414.934 436.98C414.64 436.98 412.585 437.568 412.585 437.861V438.155V438.448C412.291 438.742 411.997 439.036 411.997 439.036C411.997 439.036 411.116 439.036 411.116 439.623C411.116 440.21 410.529 441.972 409.648 441.972C408.767 441.972 406.712 440.798 406.124 440.504L405.537 441.091C405.243 440.798 404.656 440.504 404.656 440.21C404.362 439.917 403.775 440.798 404.362 441.679L405.537 441.972C406.712 442.266 407.593 442.266 408.767 442.56H409.061C409.061 442.56 408.767 443.147 408.473 443.44C408.18 443.734 407.005 444.028 405.831 444.028L405.243 444.321L404.95 444.615C404.656 445.202 403.775 446.083 403.188 446.377L402.307 446.083H402.013C401.72 446.083 401.426 446.377 401.426 446.964C401.426 447.552 402.013 448.726 402.894 448.432C403.482 448.139 406.124 447.258 406.418 447.551C406.712 447.845 407.886 448.432 408.18 448.139C408.473 447.845 409.061 446.964 408.767 446.671C408.474 446.377 407.886 445.496 408.18 445.202C408.473 444.909 409.354 445.202 410.235 445.202L411.116 444.909L412.585 444.615C411.997 446.964 411.41 449.901 411.41 450.782C411.41 451.956 412.585 451.075 413.172 450.194C413.759 449.313 416.989 448.726 417.283 448.726C417.283 448.432 417.576 447.845 417.283 447.845C416.696 447.551 416.108 447.845 415.521 447.551C414.934 447.258 414.64 446.671 414.346 446.377L413.759 446.671V447.258C413.172 447.551 412.291 447.845 411.997 448.432V448.726C412.291 449.02 412.878 449.313 411.997 449.901L411.116 450.488C411.41 449.901 411.704 448.432 411.997 447.258C412.291 446.083 413.465 444.321 414.053 443.734L414.64 443.44C414.934 443.44 415.227 443.44 415.521 443.44C415.815 443.147 416.108 442.853 416.402 442.853L417.577 441.972C418.457 440.798 419.632 439.917 420.219 439.917C420.807 439.917 423.156 440.504 424.037 441.091L422.862 441.972L422.568 442.266C422.862 443.147 422.862 443.734 422.862 443.734C422.862 443.734 421.981 443.734 420.807 443.44V444.615C420.807 445.496 421.688 445.202 422.275 445.202H423.449C424.918 444.028 426.68 442.853 426.973 442.56C427.267 442.266 428.441 442.559 428.441 442.853C428.148 443.44 427.267 446.377 427.267 446.964C427.267 447.552 427.854 447.551 428.148 447.258C428.441 446.964 428.735 445.496 428.441 444.615L427.267 444.909C426.092 445.496 424.918 446.083 424.33 446.377C423.743 446.671 422.568 447.845 422.862 448.139C423.156 448.432 424.037 449.607 424.037 449.313C424.037 449.02 424.624 448.432 424.918 448.726C425.211 448.726 425.799 449.02 425.799 448.432C425.799 448.139 428.148 445.79 429.029 445.496C429.91 445.496 432.552 444.028 432.846 443.44C433.433 442.853 435.782 442.853 435.782 442.56C435.782 442.266 436.37 441.679 436.957 441.385C437.544 441.091 438.719 439.917 438.425 439.623C438.132 439.329 436.957 438.742 436.957 439.036C436.957 439.329 436.37 439.917 436.076 440.21C435.782 440.504 435.783 441.679 435.195 441.679C434.902 441.679 433.727 440.798 433.14 440.504C432.846 440.21 431.965 439.329 432.259 438.742C432.552 438.155 434.314 438.448 435.489 438.448L435.782 437.568C436.076 436.98 435.489 436.099 436.957 436.099H437.251C437.544 436.099 438.425 435.806 438.719 436.099C439.306 436.099 440.481 436.98 439.894 437.568H439.6C438.719 437.568 438.425 438.155 438.719 438.448C439.013 438.742 439.893 438.742 440.481 438.742L441.362 438.448C441.362 437.274 441.362 435.806 441.068 435.218L440.774 434.925L440.481 434.631C439.6 434.337 439.6 434.044 440.481 434.044C441.362 434.044 443.124 435.806 444.005 436.393L444.298 436.98C444.298 437.274 445.179 437.274 445.179 437.274C446.06 436.687 446.941 436.393 447.822 435.806C447.822 435.806 447.822 435.512 447.822 435.218C447.822 434.925 447.528 434.925 447.235 434.925L446.354 435.218C445.179 435.512 444.592 435.512 444.885 435.218C445.179 434.925 446.06 434.044 446.354 434.631C446.647 434.925 448.116 433.75 448.703 433.457C449.29 433.163 451.639 432.282 452.52 432.282H453.401H453.695C453.988 432.282 455.163 431.695 456.338 431.107L457.219 430.226L457.806 429.639C457.512 428.758 457.806 427.877 458.393 427.584C458.98 427.584 461.33 427.29 462.211 426.996C463.091 426.703 463.679 424.941 463.385 424.647L461.917 425.528C461.33 424.647 461.036 424.06 460.742 424.354C460.742 424.647 459.861 425.822 459.568 425.822C458.98 425.822 457.512 426.115 457.806 426.409C458.1 426.703 456.925 427.877 456.044 427.877V428.171C456.044 428.465 456.631 429.346 456.338 429.346C455.457 429.933 455.163 429.346 454.576 429.052H454.282C453.695 429.052 453.695 429.052 453.988 428.465C454.282 428.171 454.576 427.29 454.282 426.996C453.988 426.703 453.695 425.528 453.988 424.647L455.163 425.528C455.457 425.822 456.338 425.528 456.338 425.528C456.631 425.234 456.925 424.647 457.219 424.354C457.806 424.647 458.393 424.354 458.393 423.766L458.687 423.473L459.568 422.004C461.036 422.885 462.211 423.473 462.504 423.473C462.798 423.473 463.385 422.592 463.972 421.417L462.798 420.536L462.504 420.243C462.504 419.655 462.798 419.655 463.679 419.949L464.56 420.243H464.853C465.441 420.243 465.734 420.243 465.734 420.536C465.734 420.83 466.615 421.123 467.202 420.536V419.949L467.496 418.481C468.083 417.893 469.258 417.306 469.552 417.306C470.139 417.306 471.313 417.012 471.313 416.425C471.313 415.838 471.607 414.663 472.194 414.957C472.782 415.251 475.131 415.544 476.012 414.957C476.893 414.37 476.012 412.02 476.012 411.727C476.305 411.433 476.599 411.433 476.305 411.727C476.305 412.02 478.655 411.433 479.242 410.846C480.123 410.259 482.766 411.433 483.353 411.14V410.846L483.647 410.259C484.234 410.259 485.115 409.671 485.408 409.378C485.702 409.084 486.289 408.203 485.408 408.203C484.821 408.203 483.647 407.909 484.234 407.909C484.821 407.616 485.996 406.441 486.289 407.029C486.583 407.322 488.051 408.203 488.639 408.203C489.226 408.203 490.694 407.616 489.813 406.735C488.932 405.854 488.639 402.624 489.813 401.156L490.988 399.981H491.575H491.869C492.162 400.275 492.162 401.156 492.456 402.037V402.917V403.211C492.456 403.798 491.869 403.505 491.575 402.917H491.281H490.694C490.107 403.211 489.52 403.798 489.52 404.092C489.52 404.386 489.52 404.973 490.107 404.973C490.4 405.267 491.281 406.735 492.456 407.029L493.337 406.148C493.337 406.148 494.218 406.441 494.511 406.735C494.805 407.028 495.392 407.322 495.686 407.322H496.567C497.448 407.029 498.035 406.735 497.448 406.735C497.154 406.441 495.686 406.148 495.099 405.854C494.511 405.56 493.043 404.973 493.043 404.679V404.386V404.092C493.043 403.505 493.337 403.211 493.631 403.505C493.924 403.798 495.099 403.505 495.392 403.505C495.686 403.211 496.861 402.917 497.154 402.624C497.448 402.33 497.448 401.156 496.567 401.449C495.686 401.743 493.337 402.33 493.043 402.33C493.043 402.037 493.043 401.743 493.337 401.449C493.337 401.449 493.924 401.449 493.924 401.156L495.686 400.862C495.392 399.981 495.099 399.1 495.392 398.513L495.686 398.806L496.273 399.1C496.861 398.806 497.448 399.1 497.448 399.394C497.448 399.687 498.035 401.156 498.622 402.037C499.21 402.917 500.384 405.854 500.678 406.441L501.265 406.735C501.853 407.028 502.44 406.735 503.027 406.441C503.027 406.441 503.321 406.148 503.027 405.854C502.734 404.973 501.853 405.56 501.559 405.267C501.559 405.267 501.265 404.679 501.265 403.798C501.265 402.917 502.734 400.862 502.734 400.568C503.027 400.568 504.789 399.981 506.551 399.981L507.432 398.513C507.725 397.926 508.313 397.926 508.9 398.513L510.368 399.394C511.249 398.513 511.543 397.632 511.249 397.632C510.662 397.338 509.194 397.338 509.194 397.632C508.9 397.925 508.606 396.751 508.9 396.457H509.194H510.368C511.249 395.87 512.13 395.576 512.13 395.576H512.424L513.892 396.457C514.479 395.87 515.36 394.989 515.654 394.989C515.948 394.989 517.416 394.695 518.003 394.108C518.59 393.521 520.352 392.053 520.059 391.759C519.765 391.465 519.178 389.997 518.884 389.41C518.884 389.116 519.765 389.116 519.765 389.41L520.352 389.703C520.94 389.997 521.527 390.584 521.527 391.172C521.527 391.465 521.82 392.64 522.114 392.934C522.408 392.934 523.289 392.64 523.876 391.759C524.463 390.878 526.225 388.529 526.519 388.529C526.812 388.822 527.106 389.116 527.106 389.41C527.106 389.41 526.812 389.997 527.106 390.291H527.4C527.693 390.291 528.281 389.997 528.281 389.997V389.41C528.281 388.823 527.4 387.942 526.225 387.354C525.051 387.061 523.289 389.997 523.289 389.997C523.289 389.997 522.701 390.291 522.114 389.703C521.82 389.41 520.059 388.822 520.059 388.529C520.059 388.235 520.059 387.354 519.765 387.061C519.765 386.767 519.765 386.473 520.059 386.473C520.352 386.473 521.527 387.354 522.408 387.942L522.995 387.061L523.876 385.886C525.638 385.299 527.106 385.005 526.519 385.299C526.225 385.592 525.931 386.767 526.812 386.767H527.4H528.281C528.574 387.354 529.162 387.648 529.455 387.942C529.749 387.942 530.923 387.942 530.923 387.354C530.923 386.767 531.217 385.005 531.511 385.005C531.804 385.005 532.392 385.299 532.098 385.592V385.886V386.18C532.098 386.473 531.804 387.354 531.511 387.942L532.098 388.235L532.685 388.529C533.566 388.235 533.86 387.648 533.566 387.354L533.273 386.767L533.566 386.473L534.447 386.767C535.328 387.061 535.915 386.767 536.209 386.473V386.18V385.886C536.209 385.299 536.503 385.005 536.796 385.299C537.09 385.592 538.265 385.886 538.558 385.592C538.852 385.299 538.852 384.418 538.852 383.831C538.852 383.537 540.32 382.95 541.495 382.95C542.376 382.95 543.257 380.6 543.55 380.307H543.844C544.137 380.307 544.431 380.6 544.431 380.894C544.431 381.188 544.431 381.481 544.431 381.775C544.431 382.069 545.018 382.362 545.312 382.069L545.899 381.775C546.487 381.481 547.368 380.894 547.661 380.894C547.955 380.894 548.836 380.6 548.542 380.307C548.249 380.307 547.661 379.719 547.661 379.719C547.661 379.426 549.129 379.132 550.01 378.839C550.891 378.545 553.828 377.37 554.415 377.664H555.002H556.471C556.177 376.783 556.177 375.902 556.471 375.315C556.764 374.728 558.526 375.315 558.82 375.021L559.113 374.728C559.701 374.14 559.701 372.672 561.463 374.14C561.463 374.14 562.637 374.14 562.637 373.847C563.224 372.378 563.812 371.791 565.574 372.966H565.867C566.454 372.672 568.216 371.497 569.685 370.617L570.859 369.736C571.153 369.736 571.74 368.855 571.74 368.855V368.561C571.74 368.267 572.034 367.974 572.327 367.386C572.621 366.799 574.383 366.505 574.383 367.093V367.386C574.383 367.68 574.383 367.974 574.677 368.267C575.264 368.855 575.557 368.267 575.851 367.974L576.438 366.212C578.494 365.625 581.43 364.45 583.192 363.569H585.248C585.541 363.569 585.541 363.275 585.835 362.982L586.422 361.807C587.01 362.394 587.891 362.688 588.184 362.101C588.478 361.513 592.002 360.633 593.763 360.045L594.351 359.458C594.644 359.164 595.232 358.577 595.525 358.283C596.113 358.283 596.406 358.577 596.113 358.871C596.113 359.164 596.113 360.045 596.994 359.458C597.875 359.164 600.224 357.99 600.811 357.696C601.398 357.403 603.454 356.228 604.628 356.228C605.509 356.228 607.565 355.053 608.739 355.934L607.271 357.109C607.858 357.696 608.446 357.402 608.739 356.522C609.033 355.641 610.208 353.585 610.795 353.879C611.382 354.172 612.263 355.053 612.557 354.172L614.025 354.466C614.319 354.466 614.906 354.172 615.2 353.879C615.2 353.879 615.2 353.291 614.906 353.291C614.319 352.704 613.731 353.291 613.144 353.585C612.85 353.585 612.557 353.291 612.85 352.704C613.144 352.117 613.731 351.236 614.025 351.236C614.319 351.53 615.2 351.236 615.493 350.649C615.787 350.061 618.136 349.474 618.723 348.593H620.192H620.485C621.072 349.474 621.66 350.061 621.953 350.061C621.072 348.593 623.128 348.006 623.715 346.831C623.715 346.831 624.596 346.538 625.477 346.244L626.358 346.538C627.533 347.125 627.826 346.244 628.414 345.363C628.707 344.776 630.175 345.657 630.763 344.188C631.056 343.014 633.112 343.014 634.286 343.308C635.167 343.601 635.461 343.601 635.461 344.188V344.776C635.461 345.657 636.048 345.95 636.636 345.363V345.069L636.929 343.895C636.048 343.014 636.636 341.839 637.81 340.958L638.985 340.371C639.278 340.077 639.572 339.784 639.866 339.784C643.096 340.371 644.27 337.435 647.207 336.847H647.5C647.5 336.26 647.794 335.966 648.088 336.26C648.088 336.554 649.556 337.141 650.731 336.847C651.905 336.554 653.667 334.498 653.667 334.498V334.792V335.085C653.667 335.379 654.254 335.379 654.842 334.792L655.135 334.498C655.429 334.205 655.723 333.911 656.31 333.617C656.603 333.911 657.191 333.911 657.191 333.324L657.484 333.03L657.778 332.736C658.365 332.736 658.953 333.03 659.246 333.324C659.54 333.324 661.302 332.443 662.476 331.855C663.651 331.268 666.881 329.8 667.762 329.506L668.643 329.213C668.937 328.919 669.23 328.625 669.524 328.625L670.405 328.919C671.286 328.919 672.46 328.332 672.754 327.451H673.929C674.222 327.451 675.397 327.744 675.69 328.038H675.984C676.278 328.038 676.865 328.038 676.571 327.744C676.571 327.744 676.278 327.157 676.278 326.57H677.452C678.04 326.57 678.333 326.276 678.921 326.276C679.508 325.983 680.095 325.689 680.389 325.395C680.682 325.395 680.682 325.689 680.682 325.982C680.682 326.276 680.389 327.157 680.682 327.157C680.976 327.157 681.27 327.157 681.563 326.863L681.857 326.57L683.325 324.514C685.087 324.808 687.143 324.808 687.73 324.514L688.024 324.808C688.317 325.102 688.317 325.689 688.611 325.689L689.198 325.982C690.079 325.982 690.666 325.689 690.666 325.102C690.666 324.808 690.373 323.34 689.785 323.34C689.198 323.34 687.73 323.046 688.024 322.752L688.611 322.459C689.198 322.165 690.079 322.165 690.96 322.459C691.547 322.752 693.603 322.459 693.896 322.459H694.19C695.658 322.752 696.246 323.34 695.658 324.514C695.658 324.808 695.071 324.808 695.071 325.102V325.395C695.071 325.689 695.658 325.982 696.246 325.982L696.539 325.689L697.714 324.808C699.476 325.102 700.65 325.689 700.65 325.689C700.65 325.689 701.531 325.689 702.412 325.102H703.293H704.468C705.936 325.395 707.11 325.982 707.11 326.57C707.11 327.157 708.872 327.157 709.166 327.451C709.166 327.744 709.166 328.919 709.166 329.8H710.634C710.634 330.387 710.341 331.855 710.047 332.736L710.928 333.911C711.221 334.498 712.69 335.673 710.928 336.554C710.928 336.554 711.221 337.141 711.221 337.435C711.221 337.728 711.515 338.316 711.515 338.609L711.809 341.546L712.396 342.72C712.983 343.895 713.277 345.657 713.277 346.244C713.277 346.831 715.039 348.593 715.332 348.887C715.626 349.18 715.626 350.355 715.039 350.355H714.745C714.158 350.649 713.277 350.942 712.69 351.236C712.396 351.53 714.158 352.117 712.396 352.411H711.809C711.221 352.998 710.634 353.585 710.34 353.879C710.047 354.172 709.166 355.053 709.166 355.641H708.872L707.991 355.934C706.817 355.934 705.642 356.815 705.055 357.402L704.468 357.99L703.587 358.577C702.412 359.164 700.944 359.752 700.063 360.339C699.182 360.926 695.365 362.982 693.603 363.863L692.135 364.744C692.135 364.744 691.254 364.744 690.373 364.744C689.492 364.744 687.73 366.505 687.143 367.093C686.555 367.386 684.206 368.855 682.738 369.442C681.563 370.029 678.333 372.085 678.04 372.378C677.746 372.378 676.865 372.672 676.278 372.672C675.69 372.672 674.516 373.847 674.222 374.14C673.929 374.434 672.46 374.728 672.46 375.902H670.405H669.818C669.23 375.902 668.937 375.902 668.937 375.902C668.937 375.608 668.937 375.315 668.643 375.021C668.349 375.021 667.762 375.021 667.175 375.315C666.587 375.608 666.881 377.664 666 379.132L664.238 379.426L662.77 379.719C661.595 380.307 660.421 381.188 659.54 381.188C658.953 381.481 657.484 382.362 656.897 382.95L656.31 383.243L655.429 383.831C654.254 384.418 653.08 385.005 652.786 385.005H652.492H652.199C651.905 385.005 651.024 385.299 650.143 385.886C649.556 386.473 647.207 388.529 646.62 388.822C645.739 389.116 643.389 390.291 643.389 390.291C643.389 390.291 643.977 390.584 644.858 390.584C645.739 390.584 648.381 389.997 648.969 389.703L649.556 389.41L651.905 388.235C652.492 388.529 653.373 388.822 653.961 388.529C654.254 388.529 654.548 387.942 654.842 387.648C655.429 387.354 656.016 387.061 656.897 386.767H658.365C659.834 386.473 661.008 385.299 661.008 384.418L662.183 385.005L663.945 385.886C664.238 384.711 664.826 383.831 665.413 383.831C666 383.831 667.762 383.831 668.056 383.831V382.362C669.23 382.362 670.992 382.362 671.579 382.069C672.167 382.069 673.635 381.188 674.222 381.188C674.809 381.188 676.865 381.188 677.452 380.894C678.333 380.894 680.095 379.132 680.389 378.545L681.563 379.132C682.151 378.545 683.032 377.958 683.032 378.251C683.032 378.545 683.912 378.545 684.5 377.664L685.087 377.37C685.674 377.077 686.555 377.37 687.436 377.077H688.611C689.492 376.489 690.373 375.902 690.666 375.902H690.96C691.254 375.902 691.547 376.196 691.841 376.196C692.428 376.196 692.428 374.434 693.896 375.608L694.19 375.902C695.071 375.608 696.539 375.021 697.42 374.434L698.007 373.847C698.888 373.259 699.476 375.021 700.357 374.14L700.944 373.553C701.825 373.847 703.293 374.14 704.468 374.434L704.761 372.966V372.672C705.055 372.672 705.936 372.085 707.11 372.085C707.991 371.791 710.928 371.204 710.928 371.497C711.221 371.791 711.809 372.378 711.809 372.085C711.809 371.791 712.983 370.91 714.158 371.204L714.745 370.91C715.626 370.91 716.213 371.204 716.213 371.204C716.213 371.204 717.094 371.791 717.682 371.791C718.269 372.085 719.15 374.14 719.15 374.434C719.15 374.728 722.38 374.728 723.555 375.021C724.729 375.021 728.546 375.902 729.427 376.489C730.308 377.077 732.07 380.013 732.364 380.6H730.896C730.602 380.6 730.308 381.188 730.602 381.481L730.896 381.775C730.602 382.069 730.308 382.656 730.015 382.95C729.721 383.243 730.602 383.831 730.896 384.124C731.189 384.418 730.602 385.886 730.015 386.473L731.483 386.767L732.658 387.061C732.364 387.942 731.777 389.41 731.483 389.997C731.189 390.584 731.189 393.227 730.308 393.814H732.658C732.658 394.108 732.951 394.989 732.951 395.576C732.951 396.164 733.245 398.513 733.245 398.806L732.364 399.981C733.245 400.862 734.419 401.743 735.007 402.33C735.594 402.917 732.658 405.267 731.189 405.854L730.015 406.441C728.84 407.028 727.959 408.497 727.372 409.671C726.785 410.552 727.959 411.139 728.84 410.552C730.015 409.965 730.308 411.433 731.189 410.846C731.777 410.259 732.364 409.378 733.832 409.671H734.713C735.594 409.378 737.062 409.378 737.943 409.671H738.53C739.118 409.671 739.411 408.79 739.999 408.497L740.586 408.203C741.467 408.203 742.641 408.497 743.522 408.79C744.403 409.084 746.752 408.203 747.046 408.203C747.34 408.203 748.808 408.79 749.983 409.084C751.157 409.378 754.387 408.497 754.975 408.79C755.562 409.084 757.911 409.965 758.205 409.671C758.498 409.378 759.673 409.084 759.967 409.378C760.26 409.671 761.141 410.552 761.141 410.552C761.141 410.552 759.379 410.552 757.911 410.552H756.443H755.562C754.681 411.139 755.562 411.727 757.03 412.02L758.205 411.727C759.379 411.433 760.26 412.901 761.728 411.727L762.316 411.433C763.49 411.727 764.371 412.02 764.665 412.02C764.958 412.02 765.252 412.608 765.546 412.901C765.839 413.195 767.014 412.901 767.601 412.608C768.189 412.314 769.657 412.314 769.95 412.314C770.244 412.314 770.538 413.195 770.538 413.195C770.538 413.489 769.657 413.782 768.776 413.782C767.895 413.782 767.308 415.544 766.72 415.544C766.133 415.838 765.839 417.306 766.133 417.306C766.427 417.306 767.014 418.187 766.72 418.481C766.427 419.068 768.482 419.362 769.069 419.655H769.657C769.95 419.655 770.244 419.655 770.538 419.655H771.125C771.712 419.655 772.3 419.362 772.593 419.362C772.887 419.362 773.474 419.655 773.474 420.243C773.474 420.83 773.474 422.004 773.181 422.004C772.887 422.004 771.419 422.004 770.538 421.711C769.657 421.711 769.657 423.473 769.95 422.885C770.244 422.298 772.006 423.179 771.712 423.766C771.419 424.354 770.538 425.528 770.831 425.822C771.125 425.822 772.887 426.703 774.061 427.584L775.53 427.877C775.53 428.171 774.942 429.052 774.649 429.639C774.062 430.226 774.942 432.282 774.649 432.576C774.355 432.869 774.061 433.456 774.942 434.044L775.53 434.337C775.823 434.337 776.411 434.337 776.704 434.044C776.998 433.75 777.585 433.75 777.879 434.337V434.631C778.172 434.925 777.292 435.218 776.411 435.806C775.236 436.393 772.006 435.218 772.006 435.218C771.712 435.218 770.538 436.099 769.363 436.687C768.189 437.274 763.784 438.448 763.49 438.448C763.197 438.448 762.022 439.036 761.141 439.623L760.26 439.917L759.379 440.21C758.205 440.21 756.149 440.504 754.975 440.504L754.681 441.091L753.506 442.266C752.038 441.972 750.57 441.679 749.983 441.679C749.395 441.972 747.34 441.972 746.753 441.972C746.165 441.972 743.522 442.56 742.054 443.147C740.586 443.734 734.419 444.615 732.07 444.909C729.721 445.202 723.261 446.083 722.674 446.377H722.38L718.269 447.258H715.039C711.809 448.432 708.285 449.607 707.404 449.901C706.523 450.194 701.825 450.782 699.476 451.369H697.126H695.071C693.015 451.956 691.254 452.543 690.96 452.543C690.96 452.543 690.079 452.837 689.492 452.837C688.904 452.837 686.849 452.837 686.262 453.131C685.674 453.424 682.151 453.718 679.508 454.305L677.159 454.893C676.278 455.186 674.809 454.305 674.516 454.599L673.341 455.48C672.46 454.893 671.579 454.599 671.286 454.893C670.992 455.186 669.524 454.893 668.937 455.186C668.349 455.48 666.294 454.305 665.119 454.012L664.532 453.718C663.357 453.131 662.476 453.131 661.302 453.131H661.008C660.715 452.837 659.834 452.543 658.659 451.956C657.484 451.369 653.373 450.194 651.905 449.607L651.024 448.726L650.143 447.845C650.731 446.964 651.611 446.377 651.611 446.083C651.611 446.083 651.318 445.202 651.024 444.321L651.611 443.734L651.905 443.44C651.905 443.147 651.612 442.266 651.024 441.679C650.731 441.091 650.437 438.742 650.437 438.448C650.437 437.861 648.675 436.98 648.675 436.687C648.675 436.393 648.381 434.044 648.088 432.282L647.794 430.52V430.226C646.913 430.226 645.445 430.226 644.858 430.52C644.27 430.814 641.334 431.695 640.159 432.282C638.985 432.869 635.167 434.337 634.58 435.512L632.525 435.218L631.35 434.925C629.882 435.512 627.826 436.393 626.652 436.98C625.477 437.568 621.953 438.448 621.072 438.742C620.191 439.036 616.961 440.21 615.787 440.504C614.612 440.798 611.969 442.853 611.382 443.147C611.089 443.44 609.62 442.56 609.327 442.56C609.033 442.56 607.858 442.853 606.39 443.147C604.922 443.44 601.692 446.377 600.517 446.964C599.343 447.552 595.819 448.139 595.819 448.726C595.819 449.313 593.763 449.02 593.47 449.02C593.176 449.02 592.295 449.901 592.295 449.901C592.002 449.901 590.24 450.194 588.771 450.782L587.303 451.369L586.422 451.662C585.541 452.25 584.66 452.543 584.367 452.543C584.073 452.543 582.605 453.424 582.018 453.424C581.724 453.718 579.668 454.599 578.494 454.893L577.319 455.186C575.557 455.48 573.796 455.774 573.208 457.535C572.621 457.535 571.153 457.535 569.978 457.535C568.804 457.535 567.335 459.591 567.042 459.591C566.748 459.591 565.867 459.885 565.28 459.885C564.693 459.885 562.343 461.059 560.582 461.646C559.113 462.234 554.121 463.996 553.24 464.289C552.359 464.583 550.01 465.758 549.423 466.051C549.129 466.345 546.78 466.638 546.487 466.932C545.899 467.226 544.137 468.107 543.55 468.107C542.963 468.107 540.907 468.694 540.614 468.988C540.026 469.281 536.796 470.456 534.154 471.337L532.098 472.511L531.804 472.805C531.217 472.805 530.043 473.099 528.868 473.099L528.574 474.273C527.987 474.273 526.519 474.567 525.344 475.154C524.17 475.741 520.646 477.21 519.471 477.503C518.297 477.797 514.186 480.146 512.424 480.733L510.956 481.614L508.9 482.789C506.257 483.67 503.321 484.551 501.853 485.138C500.678 485.725 496.861 487.194 496.273 487.487C495.686 487.781 493.043 488.662 491.575 488.955C490.107 489.249 486.289 491.305 485.408 491.598C484.528 491.892 481.004 493.066 479.536 493.36L478.067 493.947H477.774C477.48 493.947 475.425 494.241 472.782 494.828L471.02 495.709C469.845 496.297 468.671 496.59 467.79 496.003C466.615 495.416 465.734 495.122 464.853 496.003H464.56C463.972 496.003 462.211 495.122 460.449 494.535C458.687 493.947 453.401 493.066 453.988 492.773V492.479V492.186C453.695 491.892 453.108 491.598 452.814 491.892L452.52 492.186L452.227 492.479C452.227 493.066 451.933 492.773 451.933 491.598C451.933 490.424 452.814 488.075 451.933 487.781L451.639 487.487C451.346 487.194 451.346 486.313 451.639 486.019L451.933 484.844C450.758 484.551 450.171 484.257 450.465 484.257C450.758 484.257 451.346 483.67 451.346 483.67C450.171 483.083 448.997 482.789 448.116 482.202C447.528 481.614 447.822 480.733 448.116 479.852C448.116 479.559 448.703 479.265 448.703 478.972L448.116 478.091C447.822 476.916 447.235 475.448 446.354 474.567L445.473 473.686L445.179 473.392C444.592 473.099 444.592 472.805 444.885 472.511C445.179 472.218 445.179 470.456 444.298 468.988V467.226V466.345C444.885 465.757 446.06 464.289 446.941 463.115L446.647 462.527C446.647 462.234 446.06 462.234 445.766 462.234C444.885 462.234 445.473 462.527 445.473 463.115C445.473 463.408 444.885 464.289 444.592 464.289H443.124C443.124 465.17 442.536 465.757 442.243 465.464C441.949 465.17 441.068 465.17 440.774 466.051C440.774 466.932 437.251 467.226 436.957 468.4L435.489 468.694C433.727 469.281 431.965 469.868 430.791 471.337L430.203 471.924C429.322 472.218 427.56 472.511 426.679 473.099C425.799 473.686 422.568 474.567 422.275 474.861L421.981 475.154L421.394 475.741C420.513 476.035 419.338 475.741 418.751 475.154C418.164 474.567 416.402 473.686 416.402 473.686C416.402 473.98 416.696 474.567 416.989 475.154L417.283 475.448L416.696 475.741C416.402 475.448 415.815 474.86 415.815 475.741C415.815 476.035 416.108 476.329 416.108 476.622H416.696C417.283 476.622 417.283 476.622 416.402 476.916C415.521 476.916 414.053 478.384 414.053 478.384H413.759L412.291 477.797C412.291 478.678 412.291 479.559 412.291 479.559C412.291 479.559 411.997 480.146 411.704 480.146C411.41 480.146 409.648 480.44 408.18 480.44L407.005 481.614C406.124 482.495 404.95 483.67 403.188 482.202H402.307C402.307 482.495 402.307 482.789 402.601 483.376V483.67C402.894 483.964 402.307 483.963 401.426 483.376C400.545 483.083 398.49 483.67 398.783 483.963C399.077 483.963 399.077 484.844 397.902 485.725L396.434 484.257C396.14 483.963 395.847 483.67 395.553 483.67H395.259C394.672 483.67 394.379 484.257 394.379 485.138V485.725C394.379 486.019 393.791 486.313 393.498 486.313H392.617C392.91 486.019 393.204 485.138 393.204 484.551L392.617 484.257C392.323 484.257 392.029 483.963 392.029 483.963L391.442 484.257C391.148 484.844 390.855 485.432 390.855 485.432C390.855 485.725 390.855 486.313 390.855 486.606C390.855 486.9 389.68 486.9 389.68 486.606C388.799 485.432 387.625 485.138 387.037 485.138ZM481.591 414.663C481.591 414.076 481.591 413.489 481.591 413.489C481.591 413.489 483.059 414.076 484.528 414.076L485.408 413.489L486.289 412.901C486.877 411.727 486.583 411.14 485.408 411.727L484.528 412.314L483.647 412.901C483.94 414.076 483.353 414.663 482.178 414.663L481.591 414.37L481.004 414.076C480.417 413.195 480.123 413.195 480.123 413.782C480.123 414.37 481.591 415.544 481.591 414.663ZM377.347 482.202C377.641 482.495 378.228 482.202 378.522 481.614L378.815 481.321C379.109 481.027 381.165 481.027 381.458 481.614C381.752 481.908 382.045 482.202 382.339 482.495C382.633 482.789 383.22 482.789 383.22 482.495C383.514 482.495 383.807 481.908 383.514 481.614C382.633 480.733 382.045 480.146 384.101 479.852H384.688C384.982 478.971 384.688 478.384 383.807 478.091C382.926 477.797 380.577 478.091 380.577 478.678V479.265V479.559C380.284 479.852 379.403 479.852 378.815 479.265L379.109 478.678V478.384C379.403 478.091 379.109 478.091 378.815 477.797H378.522C378.815 478.091 377.053 481.614 377.347 482.202ZM397.315 449.607C396.14 450.194 395.847 450.782 396.728 450.782C397.609 450.782 398.783 452.543 399.077 453.131C399.371 453.424 400.839 453.718 400.839 454.012C400.839 454.012 400.839 454.599 400.545 454.599C400.251 454.893 400.251 455.186 400.251 455.48C400.251 455.774 401.426 455.48 402.307 454.305L402.601 453.424L403.188 451.956C401.72 451.075 399.664 450.488 398.49 450.488L397.609 450.194L397.315 449.607ZM631.056 345.069C630.469 344.776 629.882 344.776 629.588 344.776C629.588 344.776 628.707 345.363 628.414 345.95C628.12 346.538 630.175 347.712 631.35 347.125L632.525 346.538L632.818 346.244C633.406 345.95 631.937 345.069 631.056 345.069ZM683.032 328.038C683.325 328.332 683.912 328.625 684.5 328.332C685.087 328.038 686.262 327.157 686.262 327.157C686.262 326.863 686.262 326.57 685.968 326.57H685.674H685.087C684.5 326.57 684.5 326.276 684.793 325.982V325.689V325.395C684.5 325.102 683.913 325.102 683.619 325.395C683.325 325.689 682.738 327.451 683.032 328.038ZM646.032 338.022C645.445 337.728 644.858 337.728 644.564 338.316C644.27 338.903 641.921 340.077 641.628 340.077C641.628 340.371 641.628 340.958 641.921 340.958H642.215L643.096 340.665C643.977 340.665 645.151 340.371 645.739 340.371C646.326 340.077 646.62 338.316 646.032 338.022ZM581.43 367.093C581.724 367.386 582.018 366.505 581.724 365.625L583.486 366.799L584.367 367.386C584.954 366.799 585.248 366.212 585.248 365.625C585.248 365.331 585.248 364.45 584.66 364.45C584.367 364.45 582.899 365.037 582.018 365.625L581.137 365.918C581.137 365.625 581.137 366.505 581.43 367.093ZM504.789 402.917C505.376 403.798 505.964 403.798 506.551 402.917C507.138 402.33 508.9 400.862 509.194 400.568C509.487 400.275 508.606 399.687 507.725 399.394L507.432 399.687C506.551 400.568 505.67 401.449 505.083 402.33L504.789 402.917ZM416.696 446.671C417.283 446.964 417.577 446.671 417.577 445.79C417.577 444.909 416.402 443.734 415.815 443.734C415.521 443.734 414.64 444.321 414.934 444.321C415.521 444.321 416.108 444.909 415.521 444.909C415.227 444.909 414.934 445.79 415.227 446.377L415.815 446.671H416.696ZM669.23 328.919C668.937 328.625 668.643 328.919 668.349 329.506L668.056 329.8L667.468 330.387C666.587 330.974 666 331.268 665.706 331.562C665.706 331.855 665.706 332.443 666.294 332.443H666.587H667.175C667.762 332.149 668.349 331.562 668.643 331.268C668.937 330.974 669.524 329.213 669.23 328.919ZM597.581 359.458C597.874 359.752 598.168 359.164 598.168 358.577C598.168 357.99 601.105 358.577 601.986 358.577L602.866 358.283C602.866 357.99 602.279 357.402 601.692 357.402C601.105 357.109 599.049 357.403 598.755 357.696C598.168 357.99 597.581 359.164 597.581 359.458ZM374.704 464.877C374.411 463.408 373.823 462.821 373.236 463.408C372.649 464.289 372.649 466.051 373.823 465.757L374.704 464.877ZM661.302 334.498C662.183 334.498 662.77 334.205 663.064 333.617L663.357 333.324C663.945 332.736 664.532 332.443 663.651 331.855H663.357C662.77 332.149 661.302 333.324 660.421 333.911H659.246H658.953C658.072 334.205 660.421 334.498 661.302 334.498ZM554.415 377.958C553.534 379.426 554.121 380.013 555.296 379.719L555.59 377.664C555.59 377.664 555.883 377.664 555.883 377.37V377.077C555.883 376.783 555.59 376.489 555.002 376.489L554.415 377.958ZM389.093 476.916C388.799 476.916 388.799 477.21 389.387 477.503C389.974 477.797 391.442 476.916 392.029 476.916H392.617C393.204 476.916 393.498 476.916 394.085 476.622C394.085 476.622 394.379 476.329 394.085 476.035V475.741C393.791 475.448 392.91 475.154 392.029 475.154C391.442 474.86 389.68 476.916 389.093 476.916ZM396.14 471.337C395.847 473.98 395.847 473.98 399.37 475.448C398.196 473.98 397.315 472.805 396.14 471.337Z" fill="#FFBE48"/>
<defs>
<linearGradient id="paint0_linear_3_391" x1="389.196" y1="248" x2="389.196" y2="675.502" gradientUnits="userSpaceOnUse">
<stop stop-color="#FFF1DB"/>
<stop offset="1" stop-color="#FAFCF7"/>
</linearGradient>
</defs>
</svg>
